G04 MADE WITH FRITZING*
G04 WWW.FRITZING.ORG*
G04 DOUBLE SIDED*
G04 HOLES PLATED*
G04 CONTOUR ON CENTER OF CONTOUR VECTOR*
%ASAXBY*%
%FSLAX23Y23*%
%MOIN*%
%OFA0B0*%
%SFA1.0B1.0*%
%ADD10C,0.075000*%
%ADD11C,0.074000*%
%ADD12C,0.063000*%
%ADD13C,0.082000*%
%ADD14R,0.082000X0.082000*%
%ADD15C,0.024000*%
%ADD16R,0.001000X0.001000*%
%LNCOPPER0*%
G90*
G70*
G54D10*
X652Y953D03*
X304Y609D03*
X320Y1316D03*
G54D11*
X233Y944D03*
X283Y1044D03*
X333Y944D03*
X433Y944D03*
X533Y944D03*
X383Y1044D03*
X483Y1044D03*
X583Y1044D03*
G54D12*
X433Y344D03*
X533Y344D03*
X633Y344D03*
X733Y344D03*
X733Y644D03*
X633Y644D03*
X533Y644D03*
X433Y644D03*
G54D13*
X133Y144D03*
X233Y144D03*
X333Y144D03*
G54D11*
X533Y144D03*
X633Y134D03*
X733Y144D03*
G54D10*
X133Y744D03*
X533Y744D03*
X333Y844D03*
X733Y844D03*
X833Y844D03*
X833Y444D03*
X433Y244D03*
X833Y244D03*
G54D14*
X133Y144D03*
G54D15*
X363Y944D02*
X402Y944D01*
D02*
X263Y944D02*
X302Y944D01*
D02*
X132Y244D02*
X233Y244D01*
D02*
X233Y244D02*
X233Y644D01*
D02*
X233Y644D02*
X233Y913D01*
D02*
X132Y176D02*
X132Y244D01*
D02*
X333Y444D02*
X333Y176D01*
D02*
X432Y444D02*
X333Y444D01*
D02*
X433Y617D02*
X432Y444D01*
D02*
X502Y144D02*
X365Y144D01*
D02*
X533Y671D02*
X533Y715D01*
D02*
X533Y843D02*
X533Y913D01*
D02*
X361Y844D02*
X533Y843D01*
D02*
X333Y744D02*
X333Y815D01*
D02*
X504Y744D02*
X333Y744D01*
D02*
X733Y1044D02*
X613Y1044D01*
D02*
X733Y872D02*
X733Y1044D01*
D02*
X804Y844D02*
X761Y844D01*
D02*
X632Y744D02*
X833Y744D01*
D02*
X833Y744D02*
X833Y815D01*
D02*
X632Y671D02*
X632Y744D01*
D02*
X333Y444D02*
X804Y444D01*
D02*
X333Y176D02*
X333Y444D01*
D02*
X433Y272D02*
X433Y317D01*
D02*
X833Y144D02*
X833Y215D01*
D02*
X764Y144D02*
X833Y144D01*
G36*
X630Y1022D02*
X630Y998D01*
X628Y998D01*
X628Y996D01*
X564Y996D01*
X564Y976D01*
X566Y976D01*
X566Y974D01*
X568Y974D01*
X568Y972D01*
X570Y972D01*
X570Y968D01*
X572Y968D01*
X572Y966D01*
X574Y966D01*
X574Y962D01*
X576Y962D01*
X576Y956D01*
X578Y956D01*
X578Y950D01*
X580Y950D01*
X580Y938D01*
X578Y938D01*
X578Y930D01*
X576Y930D01*
X576Y926D01*
X574Y926D01*
X574Y922D01*
X572Y922D01*
X572Y918D01*
X570Y918D01*
X570Y916D01*
X568Y916D01*
X568Y914D01*
X566Y914D01*
X566Y912D01*
X564Y912D01*
X564Y910D01*
X562Y910D01*
X562Y908D01*
X560Y908D01*
X560Y906D01*
X556Y906D01*
X556Y904D01*
X554Y904D01*
X554Y834D01*
X552Y834D01*
X552Y830D01*
X550Y830D01*
X550Y828D01*
X548Y828D01*
X548Y826D01*
X546Y826D01*
X546Y824D01*
X542Y824D01*
X542Y822D01*
X372Y822D01*
X372Y818D01*
X370Y818D01*
X370Y816D01*
X368Y816D01*
X368Y814D01*
X366Y814D01*
X366Y812D01*
X364Y812D01*
X364Y810D01*
X362Y810D01*
X362Y808D01*
X360Y808D01*
X360Y806D01*
X358Y806D01*
X358Y804D01*
X356Y804D01*
X356Y796D01*
X726Y796D01*
X726Y798D01*
X720Y798D01*
X720Y800D01*
X714Y800D01*
X714Y802D01*
X710Y802D01*
X710Y804D01*
X708Y804D01*
X708Y806D01*
X706Y806D01*
X706Y808D01*
X702Y808D01*
X702Y810D01*
X700Y810D01*
X700Y812D01*
X698Y812D01*
X698Y814D01*
X696Y814D01*
X696Y818D01*
X694Y818D01*
X694Y820D01*
X692Y820D01*
X692Y824D01*
X690Y824D01*
X690Y828D01*
X688Y828D01*
X688Y832D01*
X686Y832D01*
X686Y854D01*
X688Y854D01*
X688Y860D01*
X690Y860D01*
X690Y864D01*
X692Y864D01*
X692Y868D01*
X694Y868D01*
X694Y870D01*
X696Y870D01*
X696Y872D01*
X698Y872D01*
X698Y876D01*
X700Y876D01*
X700Y878D01*
X704Y878D01*
X704Y880D01*
X706Y880D01*
X706Y882D01*
X708Y882D01*
X708Y884D01*
X710Y884D01*
X710Y1022D01*
X630Y1022D01*
G37*
D02*
G36*
X772Y822D02*
X772Y818D01*
X770Y818D01*
X770Y816D01*
X768Y816D01*
X768Y814D01*
X766Y814D01*
X766Y812D01*
X764Y812D01*
X764Y810D01*
X762Y810D01*
X762Y808D01*
X760Y808D01*
X760Y806D01*
X758Y806D01*
X758Y804D01*
X754Y804D01*
X754Y802D01*
X750Y802D01*
X750Y800D01*
X746Y800D01*
X746Y798D01*
X740Y798D01*
X740Y796D01*
X810Y796D01*
X810Y804D01*
X808Y804D01*
X808Y806D01*
X806Y806D01*
X806Y808D01*
X802Y808D01*
X802Y810D01*
X800Y810D01*
X800Y812D01*
X798Y812D01*
X798Y814D01*
X796Y814D01*
X796Y818D01*
X794Y818D01*
X794Y820D01*
X792Y820D01*
X792Y822D01*
X772Y822D01*
G37*
D02*
G36*
X356Y796D02*
X356Y794D01*
X810Y794D01*
X810Y796D01*
X356Y796D01*
G37*
D02*
G36*
X356Y796D02*
X356Y794D01*
X810Y794D01*
X810Y796D01*
X356Y796D01*
G37*
D02*
G36*
X356Y794D02*
X356Y792D01*
X536Y792D01*
X536Y790D01*
X544Y790D01*
X544Y788D01*
X550Y788D01*
X550Y786D01*
X554Y786D01*
X554Y784D01*
X556Y784D01*
X556Y782D01*
X560Y782D01*
X560Y780D01*
X562Y780D01*
X562Y778D01*
X564Y778D01*
X564Y776D01*
X566Y776D01*
X566Y774D01*
X568Y774D01*
X568Y772D01*
X570Y772D01*
X570Y770D01*
X572Y770D01*
X572Y766D01*
X574Y766D01*
X574Y762D01*
X576Y762D01*
X576Y758D01*
X578Y758D01*
X578Y752D01*
X580Y752D01*
X580Y736D01*
X578Y736D01*
X578Y730D01*
X576Y730D01*
X576Y724D01*
X574Y724D01*
X574Y722D01*
X572Y722D01*
X572Y718D01*
X570Y718D01*
X570Y716D01*
X568Y716D01*
X568Y714D01*
X566Y714D01*
X566Y712D01*
X564Y712D01*
X564Y710D01*
X562Y710D01*
X562Y708D01*
X560Y708D01*
X560Y706D01*
X558Y706D01*
X558Y704D01*
X554Y704D01*
X554Y678D01*
X556Y678D01*
X556Y676D01*
X558Y676D01*
X558Y674D01*
X560Y674D01*
X560Y672D01*
X562Y672D01*
X562Y670D01*
X564Y670D01*
X564Y668D01*
X566Y668D01*
X566Y664D01*
X568Y664D01*
X568Y662D01*
X570Y662D01*
X570Y658D01*
X572Y658D01*
X572Y652D01*
X592Y652D01*
X592Y654D01*
X594Y654D01*
X594Y660D01*
X596Y660D01*
X596Y662D01*
X598Y662D01*
X598Y666D01*
X600Y666D01*
X600Y668D01*
X602Y668D01*
X602Y670D01*
X604Y670D01*
X604Y672D01*
X606Y672D01*
X606Y674D01*
X608Y674D01*
X608Y676D01*
X610Y676D01*
X610Y750D01*
X612Y750D01*
X612Y756D01*
X614Y756D01*
X614Y758D01*
X616Y758D01*
X616Y760D01*
X618Y760D01*
X618Y762D01*
X620Y762D01*
X620Y764D01*
X624Y764D01*
X624Y766D01*
X810Y766D01*
X810Y794D01*
X356Y794D01*
G37*
D02*
G36*
X356Y792D02*
X356Y766D01*
X492Y766D01*
X492Y768D01*
X494Y768D01*
X494Y770D01*
X496Y770D01*
X496Y772D01*
X498Y772D01*
X498Y776D01*
X500Y776D01*
X500Y778D01*
X504Y778D01*
X504Y780D01*
X506Y780D01*
X506Y782D01*
X508Y782D01*
X508Y784D01*
X512Y784D01*
X512Y786D01*
X516Y786D01*
X516Y788D01*
X520Y788D01*
X520Y790D01*
X528Y790D01*
X528Y792D01*
X356Y792D01*
G37*
D02*
G36*
X272Y922D02*
X272Y918D01*
X270Y918D01*
X270Y916D01*
X268Y916D01*
X268Y914D01*
X266Y914D01*
X266Y912D01*
X264Y912D01*
X264Y910D01*
X262Y910D01*
X262Y908D01*
X260Y908D01*
X260Y906D01*
X256Y906D01*
X256Y904D01*
X254Y904D01*
X254Y686D01*
X436Y686D01*
X436Y684D01*
X444Y684D01*
X444Y682D01*
X448Y682D01*
X448Y680D01*
X452Y680D01*
X452Y678D01*
X456Y678D01*
X456Y676D01*
X458Y676D01*
X458Y674D01*
X460Y674D01*
X460Y672D01*
X462Y672D01*
X462Y670D01*
X464Y670D01*
X464Y668D01*
X466Y668D01*
X466Y664D01*
X468Y664D01*
X468Y662D01*
X470Y662D01*
X470Y658D01*
X472Y658D01*
X472Y652D01*
X492Y652D01*
X492Y654D01*
X494Y654D01*
X494Y660D01*
X496Y660D01*
X496Y662D01*
X498Y662D01*
X498Y666D01*
X500Y666D01*
X500Y668D01*
X502Y668D01*
X502Y670D01*
X504Y670D01*
X504Y672D01*
X506Y672D01*
X506Y674D01*
X508Y674D01*
X508Y676D01*
X510Y676D01*
X510Y704D01*
X508Y704D01*
X508Y706D01*
X506Y706D01*
X506Y708D01*
X502Y708D01*
X502Y710D01*
X500Y710D01*
X500Y712D01*
X498Y712D01*
X498Y714D01*
X496Y714D01*
X496Y718D01*
X494Y718D01*
X494Y720D01*
X492Y720D01*
X492Y722D01*
X328Y722D01*
X328Y724D01*
X324Y724D01*
X324Y726D01*
X320Y726D01*
X320Y728D01*
X318Y728D01*
X318Y730D01*
X316Y730D01*
X316Y732D01*
X314Y732D01*
X314Y736D01*
X312Y736D01*
X312Y788D01*
X310Y788D01*
X310Y804D01*
X308Y804D01*
X308Y806D01*
X306Y806D01*
X306Y808D01*
X302Y808D01*
X302Y810D01*
X300Y810D01*
X300Y812D01*
X298Y812D01*
X298Y814D01*
X296Y814D01*
X296Y818D01*
X294Y818D01*
X294Y820D01*
X292Y820D01*
X292Y824D01*
X290Y824D01*
X290Y828D01*
X288Y828D01*
X288Y832D01*
X286Y832D01*
X286Y854D01*
X288Y854D01*
X288Y860D01*
X290Y860D01*
X290Y864D01*
X292Y864D01*
X292Y868D01*
X294Y868D01*
X294Y870D01*
X296Y870D01*
X296Y872D01*
X298Y872D01*
X298Y876D01*
X300Y876D01*
X300Y878D01*
X304Y878D01*
X304Y880D01*
X306Y880D01*
X306Y882D01*
X308Y882D01*
X308Y884D01*
X312Y884D01*
X312Y904D01*
X308Y904D01*
X308Y906D01*
X306Y906D01*
X306Y908D01*
X304Y908D01*
X304Y910D01*
X300Y910D01*
X300Y914D01*
X298Y914D01*
X298Y916D01*
X296Y916D01*
X296Y918D01*
X294Y918D01*
X294Y920D01*
X292Y920D01*
X292Y922D01*
X272Y922D01*
G37*
D02*
G36*
X254Y686D02*
X254Y236D01*
X252Y236D01*
X252Y232D01*
X250Y232D01*
X250Y230D01*
X248Y230D01*
X248Y228D01*
X246Y228D01*
X246Y226D01*
X242Y226D01*
X242Y224D01*
X238Y224D01*
X238Y222D01*
X154Y222D01*
X154Y194D01*
X244Y194D01*
X244Y192D01*
X250Y192D01*
X250Y190D01*
X254Y190D01*
X254Y188D01*
X258Y188D01*
X258Y186D01*
X260Y186D01*
X260Y184D01*
X262Y184D01*
X262Y182D01*
X266Y182D01*
X266Y180D01*
X268Y180D01*
X268Y178D01*
X270Y178D01*
X270Y174D01*
X272Y174D01*
X272Y172D01*
X292Y172D01*
X292Y174D01*
X294Y174D01*
X294Y176D01*
X296Y176D01*
X296Y178D01*
X298Y178D01*
X298Y180D01*
X300Y180D01*
X300Y182D01*
X302Y182D01*
X302Y184D01*
X304Y184D01*
X304Y186D01*
X308Y186D01*
X308Y188D01*
X310Y188D01*
X310Y308D01*
X312Y308D01*
X312Y452D01*
X314Y452D01*
X314Y456D01*
X316Y456D01*
X316Y458D01*
X318Y458D01*
X318Y460D01*
X320Y460D01*
X320Y462D01*
X322Y462D01*
X322Y464D01*
X326Y464D01*
X326Y466D01*
X410Y466D01*
X410Y612D01*
X406Y612D01*
X406Y614D01*
X404Y614D01*
X404Y616D01*
X402Y616D01*
X402Y620D01*
X400Y620D01*
X400Y622D01*
X398Y622D01*
X398Y624D01*
X396Y624D01*
X396Y628D01*
X394Y628D01*
X394Y634D01*
X392Y634D01*
X392Y654D01*
X394Y654D01*
X394Y660D01*
X396Y660D01*
X396Y662D01*
X398Y662D01*
X398Y666D01*
X400Y666D01*
X400Y668D01*
X402Y668D01*
X402Y670D01*
X404Y670D01*
X404Y672D01*
X406Y672D01*
X406Y674D01*
X408Y674D01*
X408Y676D01*
X410Y676D01*
X410Y678D01*
X412Y678D01*
X412Y680D01*
X416Y680D01*
X416Y682D01*
X422Y682D01*
X422Y684D01*
X428Y684D01*
X428Y686D01*
X254Y686D01*
G37*
D02*
G36*
X184Y194D02*
X184Y184D01*
X204Y184D01*
X204Y186D01*
X208Y186D01*
X208Y188D01*
X212Y188D01*
X212Y190D01*
X216Y190D01*
X216Y192D01*
X220Y192D01*
X220Y194D01*
X184Y194D01*
G37*
D02*
G36*
X372Y922D02*
X372Y918D01*
X370Y918D01*
X370Y916D01*
X368Y916D01*
X368Y914D01*
X366Y914D01*
X366Y912D01*
X364Y912D01*
X364Y910D01*
X362Y910D01*
X362Y908D01*
X360Y908D01*
X360Y906D01*
X356Y906D01*
X356Y904D01*
X354Y904D01*
X354Y896D01*
X430Y896D01*
X430Y898D01*
X420Y898D01*
X420Y900D01*
X416Y900D01*
X416Y902D01*
X412Y902D01*
X412Y904D01*
X408Y904D01*
X408Y906D01*
X406Y906D01*
X406Y908D01*
X404Y908D01*
X404Y910D01*
X400Y910D01*
X400Y914D01*
X398Y914D01*
X398Y916D01*
X396Y916D01*
X396Y918D01*
X394Y918D01*
X394Y920D01*
X392Y920D01*
X392Y922D01*
X372Y922D01*
G37*
D02*
G36*
X472Y922D02*
X472Y918D01*
X470Y918D01*
X470Y916D01*
X468Y916D01*
X468Y914D01*
X466Y914D01*
X466Y912D01*
X464Y912D01*
X464Y910D01*
X462Y910D01*
X462Y908D01*
X460Y908D01*
X460Y906D01*
X456Y906D01*
X456Y904D01*
X454Y904D01*
X454Y902D01*
X450Y902D01*
X450Y900D01*
X444Y900D01*
X444Y898D01*
X436Y898D01*
X436Y896D01*
X510Y896D01*
X510Y904D01*
X508Y904D01*
X508Y906D01*
X506Y906D01*
X506Y908D01*
X504Y908D01*
X504Y910D01*
X500Y910D01*
X500Y914D01*
X498Y914D01*
X498Y916D01*
X496Y916D01*
X496Y918D01*
X494Y918D01*
X494Y920D01*
X492Y920D01*
X492Y922D01*
X472Y922D01*
G37*
D02*
G36*
X354Y896D02*
X354Y894D01*
X510Y894D01*
X510Y896D01*
X354Y896D01*
G37*
D02*
G36*
X354Y896D02*
X354Y894D01*
X510Y894D01*
X510Y896D01*
X354Y896D01*
G37*
D02*
G36*
X354Y894D02*
X354Y884D01*
X356Y884D01*
X356Y882D01*
X360Y882D01*
X360Y880D01*
X362Y880D01*
X362Y878D01*
X364Y878D01*
X364Y876D01*
X366Y876D01*
X366Y874D01*
X368Y874D01*
X368Y872D01*
X370Y872D01*
X370Y870D01*
X372Y870D01*
X372Y866D01*
X510Y866D01*
X510Y894D01*
X354Y894D01*
G37*
D02*
G36*
X40Y1380D02*
X40Y1220D01*
X178Y1220D01*
X178Y1222D01*
X166Y1222D01*
X166Y1224D01*
X160Y1224D01*
X160Y1226D01*
X154Y1226D01*
X154Y1228D01*
X150Y1228D01*
X150Y1230D01*
X146Y1230D01*
X146Y1232D01*
X144Y1232D01*
X144Y1234D01*
X140Y1234D01*
X140Y1236D01*
X138Y1236D01*
X138Y1238D01*
X136Y1238D01*
X136Y1240D01*
X134Y1240D01*
X134Y1242D01*
X132Y1242D01*
X132Y1244D01*
X130Y1244D01*
X130Y1246D01*
X128Y1246D01*
X128Y1248D01*
X126Y1248D01*
X126Y1250D01*
X124Y1250D01*
X124Y1252D01*
X122Y1252D01*
X122Y1256D01*
X120Y1256D01*
X120Y1260D01*
X118Y1260D01*
X118Y1262D01*
X116Y1262D01*
X116Y1268D01*
X114Y1268D01*
X114Y1272D01*
X112Y1272D01*
X112Y1280D01*
X110Y1280D01*
X110Y1308D01*
X112Y1308D01*
X112Y1314D01*
X114Y1314D01*
X114Y1320D01*
X116Y1320D01*
X116Y1324D01*
X118Y1324D01*
X118Y1328D01*
X120Y1328D01*
X120Y1332D01*
X122Y1332D01*
X122Y1334D01*
X124Y1334D01*
X124Y1338D01*
X126Y1338D01*
X126Y1340D01*
X128Y1340D01*
X128Y1342D01*
X130Y1342D01*
X130Y1344D01*
X132Y1344D01*
X132Y1346D01*
X134Y1346D01*
X134Y1348D01*
X136Y1348D01*
X136Y1350D01*
X138Y1350D01*
X138Y1352D01*
X142Y1352D01*
X142Y1354D01*
X144Y1354D01*
X144Y1356D01*
X148Y1356D01*
X148Y1358D01*
X152Y1358D01*
X152Y1360D01*
X156Y1360D01*
X156Y1380D01*
X40Y1380D01*
G37*
D02*
G36*
X210Y1380D02*
X210Y1360D01*
X214Y1360D01*
X214Y1358D01*
X218Y1358D01*
X218Y1356D01*
X222Y1356D01*
X222Y1354D01*
X224Y1354D01*
X224Y1352D01*
X226Y1352D01*
X226Y1350D01*
X230Y1350D01*
X230Y1348D01*
X232Y1348D01*
X232Y1346D01*
X234Y1346D01*
X234Y1344D01*
X236Y1344D01*
X236Y1342D01*
X238Y1342D01*
X238Y1338D01*
X240Y1338D01*
X240Y1336D01*
X242Y1336D01*
X242Y1334D01*
X244Y1334D01*
X244Y1330D01*
X246Y1330D01*
X246Y1326D01*
X248Y1326D01*
X248Y1322D01*
X250Y1322D01*
X250Y1318D01*
X252Y1318D01*
X252Y1312D01*
X254Y1312D01*
X254Y1302D01*
X256Y1302D01*
X256Y1286D01*
X254Y1286D01*
X254Y1276D01*
X252Y1276D01*
X252Y1270D01*
X250Y1270D01*
X250Y1264D01*
X248Y1264D01*
X248Y1260D01*
X246Y1260D01*
X246Y1258D01*
X244Y1258D01*
X244Y1254D01*
X242Y1254D01*
X242Y1252D01*
X240Y1252D01*
X240Y1248D01*
X238Y1248D01*
X238Y1246D01*
X236Y1246D01*
X236Y1244D01*
X234Y1244D01*
X234Y1242D01*
X232Y1242D01*
X232Y1240D01*
X230Y1240D01*
X230Y1238D01*
X228Y1238D01*
X228Y1236D01*
X224Y1236D01*
X224Y1234D01*
X222Y1234D01*
X222Y1232D01*
X218Y1232D01*
X218Y1230D01*
X216Y1230D01*
X216Y1228D01*
X212Y1228D01*
X212Y1226D01*
X206Y1226D01*
X206Y1224D01*
X200Y1224D01*
X200Y1222D01*
X186Y1222D01*
X186Y1220D01*
X628Y1220D01*
X628Y1222D01*
X616Y1222D01*
X616Y1224D01*
X610Y1224D01*
X610Y1226D01*
X604Y1226D01*
X604Y1228D01*
X600Y1228D01*
X600Y1230D01*
X596Y1230D01*
X596Y1232D01*
X594Y1232D01*
X594Y1234D01*
X590Y1234D01*
X590Y1236D01*
X588Y1236D01*
X588Y1238D01*
X586Y1238D01*
X586Y1240D01*
X584Y1240D01*
X584Y1242D01*
X582Y1242D01*
X582Y1244D01*
X580Y1244D01*
X580Y1246D01*
X578Y1246D01*
X578Y1248D01*
X576Y1248D01*
X576Y1250D01*
X574Y1250D01*
X574Y1252D01*
X572Y1252D01*
X572Y1256D01*
X570Y1256D01*
X570Y1260D01*
X568Y1260D01*
X568Y1262D01*
X566Y1262D01*
X566Y1268D01*
X564Y1268D01*
X564Y1272D01*
X562Y1272D01*
X562Y1280D01*
X560Y1280D01*
X560Y1308D01*
X562Y1308D01*
X562Y1314D01*
X564Y1314D01*
X564Y1320D01*
X566Y1320D01*
X566Y1324D01*
X568Y1324D01*
X568Y1328D01*
X570Y1328D01*
X570Y1332D01*
X572Y1332D01*
X572Y1334D01*
X574Y1334D01*
X574Y1338D01*
X576Y1338D01*
X576Y1340D01*
X578Y1340D01*
X578Y1342D01*
X580Y1342D01*
X580Y1344D01*
X582Y1344D01*
X582Y1346D01*
X584Y1346D01*
X584Y1348D01*
X586Y1348D01*
X586Y1350D01*
X588Y1350D01*
X588Y1352D01*
X592Y1352D01*
X592Y1354D01*
X594Y1354D01*
X594Y1356D01*
X598Y1356D01*
X598Y1358D01*
X602Y1358D01*
X602Y1360D01*
X606Y1360D01*
X606Y1380D01*
X210Y1380D01*
G37*
D02*
G36*
X660Y1380D02*
X660Y1360D01*
X664Y1360D01*
X664Y1358D01*
X668Y1358D01*
X668Y1356D01*
X672Y1356D01*
X672Y1354D01*
X674Y1354D01*
X674Y1352D01*
X676Y1352D01*
X676Y1350D01*
X680Y1350D01*
X680Y1348D01*
X682Y1348D01*
X682Y1346D01*
X684Y1346D01*
X684Y1344D01*
X686Y1344D01*
X686Y1342D01*
X688Y1342D01*
X688Y1338D01*
X690Y1338D01*
X690Y1336D01*
X692Y1336D01*
X692Y1334D01*
X694Y1334D01*
X694Y1330D01*
X696Y1330D01*
X696Y1326D01*
X698Y1326D01*
X698Y1322D01*
X700Y1322D01*
X700Y1318D01*
X702Y1318D01*
X702Y1312D01*
X704Y1312D01*
X704Y1302D01*
X706Y1302D01*
X706Y1286D01*
X704Y1286D01*
X704Y1276D01*
X702Y1276D01*
X702Y1270D01*
X700Y1270D01*
X700Y1264D01*
X698Y1264D01*
X698Y1260D01*
X696Y1260D01*
X696Y1258D01*
X694Y1258D01*
X694Y1254D01*
X692Y1254D01*
X692Y1252D01*
X690Y1252D01*
X690Y1248D01*
X688Y1248D01*
X688Y1246D01*
X686Y1246D01*
X686Y1244D01*
X684Y1244D01*
X684Y1242D01*
X682Y1242D01*
X682Y1240D01*
X680Y1240D01*
X680Y1238D01*
X678Y1238D01*
X678Y1236D01*
X674Y1236D01*
X674Y1234D01*
X672Y1234D01*
X672Y1232D01*
X668Y1232D01*
X668Y1230D01*
X666Y1230D01*
X666Y1228D01*
X662Y1228D01*
X662Y1226D01*
X656Y1226D01*
X656Y1224D01*
X650Y1224D01*
X650Y1222D01*
X636Y1222D01*
X636Y1220D01*
X900Y1220D01*
X900Y1380D01*
X660Y1380D01*
G37*
D02*
G36*
X40Y1220D02*
X40Y1218D01*
X900Y1218D01*
X900Y1220D01*
X40Y1220D01*
G37*
D02*
G36*
X40Y1220D02*
X40Y1218D01*
X900Y1218D01*
X900Y1220D01*
X40Y1220D01*
G37*
D02*
G36*
X40Y1220D02*
X40Y1218D01*
X900Y1218D01*
X900Y1220D01*
X40Y1220D01*
G37*
D02*
G36*
X40Y1218D02*
X40Y1090D01*
X630Y1090D01*
X630Y1066D01*
X740Y1066D01*
X740Y1064D01*
X744Y1064D01*
X744Y1062D01*
X748Y1062D01*
X748Y1060D01*
X750Y1060D01*
X750Y1056D01*
X752Y1056D01*
X752Y1052D01*
X754Y1052D01*
X754Y892D01*
X836Y892D01*
X836Y890D01*
X844Y890D01*
X844Y888D01*
X850Y888D01*
X850Y886D01*
X854Y886D01*
X854Y884D01*
X856Y884D01*
X856Y882D01*
X860Y882D01*
X860Y880D01*
X862Y880D01*
X862Y878D01*
X864Y878D01*
X864Y876D01*
X866Y876D01*
X866Y874D01*
X868Y874D01*
X868Y872D01*
X870Y872D01*
X870Y870D01*
X872Y870D01*
X872Y866D01*
X874Y866D01*
X874Y862D01*
X876Y862D01*
X876Y858D01*
X878Y858D01*
X878Y852D01*
X880Y852D01*
X880Y836D01*
X878Y836D01*
X878Y830D01*
X876Y830D01*
X876Y824D01*
X874Y824D01*
X874Y822D01*
X872Y822D01*
X872Y818D01*
X870Y818D01*
X870Y816D01*
X868Y816D01*
X868Y814D01*
X866Y814D01*
X866Y812D01*
X864Y812D01*
X864Y810D01*
X862Y810D01*
X862Y808D01*
X860Y808D01*
X860Y806D01*
X858Y806D01*
X858Y804D01*
X854Y804D01*
X854Y780D01*
X856Y780D01*
X856Y742D01*
X854Y742D01*
X854Y734D01*
X852Y734D01*
X852Y732D01*
X850Y732D01*
X850Y730D01*
X848Y730D01*
X848Y728D01*
X846Y728D01*
X846Y726D01*
X844Y726D01*
X844Y724D01*
X838Y724D01*
X838Y722D01*
X654Y722D01*
X654Y686D01*
X736Y686D01*
X736Y684D01*
X744Y684D01*
X744Y682D01*
X748Y682D01*
X748Y680D01*
X752Y680D01*
X752Y678D01*
X756Y678D01*
X756Y676D01*
X758Y676D01*
X758Y674D01*
X760Y674D01*
X760Y672D01*
X762Y672D01*
X762Y670D01*
X764Y670D01*
X764Y668D01*
X766Y668D01*
X766Y664D01*
X768Y664D01*
X768Y662D01*
X770Y662D01*
X770Y658D01*
X772Y658D01*
X772Y652D01*
X774Y652D01*
X774Y636D01*
X772Y636D01*
X772Y630D01*
X770Y630D01*
X770Y626D01*
X768Y626D01*
X768Y622D01*
X766Y622D01*
X766Y620D01*
X764Y620D01*
X764Y618D01*
X762Y618D01*
X762Y616D01*
X760Y616D01*
X760Y614D01*
X758Y614D01*
X758Y612D01*
X756Y612D01*
X756Y610D01*
X754Y610D01*
X754Y608D01*
X750Y608D01*
X750Y606D01*
X746Y606D01*
X746Y604D01*
X740Y604D01*
X740Y602D01*
X900Y602D01*
X900Y1218D01*
X40Y1218D01*
G37*
D02*
G36*
X40Y1090D02*
X40Y996D01*
X280Y996D01*
X280Y998D01*
X270Y998D01*
X270Y1000D01*
X266Y1000D01*
X266Y1002D01*
X262Y1002D01*
X262Y1004D01*
X258Y1004D01*
X258Y1006D01*
X256Y1006D01*
X256Y1008D01*
X254Y1008D01*
X254Y1010D01*
X250Y1010D01*
X250Y1014D01*
X248Y1014D01*
X248Y1016D01*
X246Y1016D01*
X246Y1018D01*
X244Y1018D01*
X244Y1020D01*
X242Y1020D01*
X242Y1024D01*
X240Y1024D01*
X240Y1028D01*
X238Y1028D01*
X238Y1034D01*
X236Y1034D01*
X236Y1054D01*
X238Y1054D01*
X238Y1060D01*
X240Y1060D01*
X240Y1064D01*
X242Y1064D01*
X242Y1066D01*
X244Y1066D01*
X244Y1070D01*
X246Y1070D01*
X246Y1072D01*
X248Y1072D01*
X248Y1074D01*
X250Y1074D01*
X250Y1076D01*
X252Y1076D01*
X252Y1078D01*
X254Y1078D01*
X254Y1080D01*
X256Y1080D01*
X256Y1082D01*
X260Y1082D01*
X260Y1084D01*
X262Y1084D01*
X262Y1086D01*
X266Y1086D01*
X266Y1088D01*
X272Y1088D01*
X272Y1090D01*
X40Y1090D01*
G37*
D02*
G36*
X294Y1090D02*
X294Y1088D01*
X300Y1088D01*
X300Y1086D01*
X302Y1086D01*
X302Y1084D01*
X306Y1084D01*
X306Y1082D01*
X310Y1082D01*
X310Y1080D01*
X312Y1080D01*
X312Y1078D01*
X314Y1078D01*
X314Y1076D01*
X316Y1076D01*
X316Y1074D01*
X318Y1074D01*
X318Y1072D01*
X320Y1072D01*
X320Y1068D01*
X322Y1068D01*
X322Y1066D01*
X344Y1066D01*
X344Y1070D01*
X346Y1070D01*
X346Y1072D01*
X348Y1072D01*
X348Y1074D01*
X350Y1074D01*
X350Y1076D01*
X352Y1076D01*
X352Y1078D01*
X354Y1078D01*
X354Y1080D01*
X356Y1080D01*
X356Y1082D01*
X360Y1082D01*
X360Y1084D01*
X362Y1084D01*
X362Y1086D01*
X366Y1086D01*
X366Y1088D01*
X372Y1088D01*
X372Y1090D01*
X294Y1090D01*
G37*
D02*
G36*
X394Y1090D02*
X394Y1088D01*
X400Y1088D01*
X400Y1086D01*
X402Y1086D01*
X402Y1084D01*
X406Y1084D01*
X406Y1082D01*
X410Y1082D01*
X410Y1080D01*
X412Y1080D01*
X412Y1078D01*
X414Y1078D01*
X414Y1076D01*
X416Y1076D01*
X416Y1074D01*
X418Y1074D01*
X418Y1072D01*
X420Y1072D01*
X420Y1068D01*
X422Y1068D01*
X422Y1066D01*
X444Y1066D01*
X444Y1070D01*
X446Y1070D01*
X446Y1072D01*
X448Y1072D01*
X448Y1074D01*
X450Y1074D01*
X450Y1076D01*
X452Y1076D01*
X452Y1078D01*
X454Y1078D01*
X454Y1080D01*
X456Y1080D01*
X456Y1082D01*
X460Y1082D01*
X460Y1084D01*
X462Y1084D01*
X462Y1086D01*
X466Y1086D01*
X466Y1088D01*
X472Y1088D01*
X472Y1090D01*
X394Y1090D01*
G37*
D02*
G36*
X494Y1090D02*
X494Y1088D01*
X500Y1088D01*
X500Y1086D01*
X502Y1086D01*
X502Y1084D01*
X506Y1084D01*
X506Y1082D01*
X510Y1082D01*
X510Y1080D01*
X512Y1080D01*
X512Y1078D01*
X514Y1078D01*
X514Y1076D01*
X516Y1076D01*
X516Y1074D01*
X536Y1074D01*
X536Y1090D01*
X494Y1090D01*
G37*
D02*
G36*
X322Y1022D02*
X322Y1018D01*
X320Y1018D01*
X320Y1016D01*
X318Y1016D01*
X318Y1014D01*
X316Y1014D01*
X316Y1012D01*
X314Y1012D01*
X314Y1010D01*
X312Y1010D01*
X312Y1008D01*
X310Y1008D01*
X310Y1006D01*
X306Y1006D01*
X306Y1004D01*
X304Y1004D01*
X304Y1002D01*
X300Y1002D01*
X300Y1000D01*
X294Y1000D01*
X294Y998D01*
X286Y998D01*
X286Y996D01*
X380Y996D01*
X380Y998D01*
X370Y998D01*
X370Y1000D01*
X366Y1000D01*
X366Y1002D01*
X362Y1002D01*
X362Y1004D01*
X358Y1004D01*
X358Y1006D01*
X356Y1006D01*
X356Y1008D01*
X354Y1008D01*
X354Y1010D01*
X350Y1010D01*
X350Y1014D01*
X348Y1014D01*
X348Y1016D01*
X346Y1016D01*
X346Y1018D01*
X344Y1018D01*
X344Y1020D01*
X342Y1020D01*
X342Y1022D01*
X322Y1022D01*
G37*
D02*
G36*
X422Y1022D02*
X422Y1018D01*
X420Y1018D01*
X420Y1016D01*
X418Y1016D01*
X418Y1014D01*
X416Y1014D01*
X416Y1012D01*
X414Y1012D01*
X414Y1010D01*
X412Y1010D01*
X412Y1008D01*
X410Y1008D01*
X410Y1006D01*
X406Y1006D01*
X406Y1004D01*
X404Y1004D01*
X404Y1002D01*
X400Y1002D01*
X400Y1000D01*
X394Y1000D01*
X394Y998D01*
X386Y998D01*
X386Y996D01*
X480Y996D01*
X480Y998D01*
X470Y998D01*
X470Y1000D01*
X466Y1000D01*
X466Y1002D01*
X462Y1002D01*
X462Y1004D01*
X458Y1004D01*
X458Y1006D01*
X456Y1006D01*
X456Y1008D01*
X454Y1008D01*
X454Y1010D01*
X450Y1010D01*
X450Y1014D01*
X448Y1014D01*
X448Y1016D01*
X446Y1016D01*
X446Y1018D01*
X444Y1018D01*
X444Y1020D01*
X442Y1020D01*
X442Y1022D01*
X422Y1022D01*
G37*
D02*
G36*
X516Y1014D02*
X516Y1012D01*
X514Y1012D01*
X514Y1010D01*
X512Y1010D01*
X512Y1008D01*
X510Y1008D01*
X510Y1006D01*
X506Y1006D01*
X506Y1004D01*
X504Y1004D01*
X504Y1002D01*
X500Y1002D01*
X500Y1000D01*
X494Y1000D01*
X494Y998D01*
X486Y998D01*
X486Y996D01*
X536Y996D01*
X536Y1014D01*
X516Y1014D01*
G37*
D02*
G36*
X40Y996D02*
X40Y994D01*
X536Y994D01*
X536Y996D01*
X40Y996D01*
G37*
D02*
G36*
X40Y996D02*
X40Y994D01*
X536Y994D01*
X536Y996D01*
X40Y996D01*
G37*
D02*
G36*
X40Y996D02*
X40Y994D01*
X536Y994D01*
X536Y996D01*
X40Y996D01*
G37*
D02*
G36*
X40Y996D02*
X40Y994D01*
X536Y994D01*
X536Y996D01*
X40Y996D01*
G37*
D02*
G36*
X40Y994D02*
X40Y990D01*
X444Y990D01*
X444Y988D01*
X450Y988D01*
X450Y986D01*
X452Y986D01*
X452Y984D01*
X456Y984D01*
X456Y982D01*
X460Y982D01*
X460Y980D01*
X462Y980D01*
X462Y978D01*
X464Y978D01*
X464Y976D01*
X466Y976D01*
X466Y974D01*
X468Y974D01*
X468Y972D01*
X470Y972D01*
X470Y968D01*
X472Y968D01*
X472Y966D01*
X494Y966D01*
X494Y970D01*
X496Y970D01*
X496Y972D01*
X498Y972D01*
X498Y974D01*
X500Y974D01*
X500Y976D01*
X502Y976D01*
X502Y978D01*
X504Y978D01*
X504Y980D01*
X506Y980D01*
X506Y982D01*
X510Y982D01*
X510Y984D01*
X512Y984D01*
X512Y986D01*
X516Y986D01*
X516Y988D01*
X522Y988D01*
X522Y990D01*
X536Y990D01*
X536Y994D01*
X40Y994D01*
G37*
D02*
G36*
X40Y990D02*
X40Y792D01*
X136Y792D01*
X136Y790D01*
X144Y790D01*
X144Y788D01*
X150Y788D01*
X150Y786D01*
X154Y786D01*
X154Y784D01*
X156Y784D01*
X156Y782D01*
X160Y782D01*
X160Y780D01*
X162Y780D01*
X162Y778D01*
X164Y778D01*
X164Y776D01*
X166Y776D01*
X166Y774D01*
X168Y774D01*
X168Y772D01*
X170Y772D01*
X170Y770D01*
X172Y770D01*
X172Y766D01*
X174Y766D01*
X174Y762D01*
X176Y762D01*
X176Y758D01*
X178Y758D01*
X178Y752D01*
X180Y752D01*
X180Y736D01*
X178Y736D01*
X178Y730D01*
X176Y730D01*
X176Y724D01*
X174Y724D01*
X174Y722D01*
X172Y722D01*
X172Y718D01*
X170Y718D01*
X170Y716D01*
X168Y716D01*
X168Y714D01*
X166Y714D01*
X166Y712D01*
X164Y712D01*
X164Y710D01*
X162Y710D01*
X162Y708D01*
X160Y708D01*
X160Y706D01*
X158Y706D01*
X158Y704D01*
X154Y704D01*
X154Y702D01*
X150Y702D01*
X150Y700D01*
X146Y700D01*
X146Y698D01*
X140Y698D01*
X140Y696D01*
X210Y696D01*
X210Y904D01*
X208Y904D01*
X208Y906D01*
X206Y906D01*
X206Y908D01*
X204Y908D01*
X204Y910D01*
X200Y910D01*
X200Y914D01*
X198Y914D01*
X198Y916D01*
X196Y916D01*
X196Y918D01*
X194Y918D01*
X194Y920D01*
X192Y920D01*
X192Y924D01*
X190Y924D01*
X190Y928D01*
X188Y928D01*
X188Y934D01*
X186Y934D01*
X186Y954D01*
X188Y954D01*
X188Y960D01*
X190Y960D01*
X190Y964D01*
X192Y964D01*
X192Y966D01*
X194Y966D01*
X194Y970D01*
X196Y970D01*
X196Y972D01*
X198Y972D01*
X198Y974D01*
X200Y974D01*
X200Y976D01*
X202Y976D01*
X202Y978D01*
X204Y978D01*
X204Y980D01*
X206Y980D01*
X206Y982D01*
X210Y982D01*
X210Y984D01*
X212Y984D01*
X212Y986D01*
X216Y986D01*
X216Y988D01*
X222Y988D01*
X222Y990D01*
X40Y990D01*
G37*
D02*
G36*
X244Y990D02*
X244Y988D01*
X250Y988D01*
X250Y986D01*
X252Y986D01*
X252Y984D01*
X256Y984D01*
X256Y982D01*
X260Y982D01*
X260Y980D01*
X262Y980D01*
X262Y978D01*
X264Y978D01*
X264Y976D01*
X266Y976D01*
X266Y974D01*
X268Y974D01*
X268Y972D01*
X270Y972D01*
X270Y968D01*
X272Y968D01*
X272Y966D01*
X294Y966D01*
X294Y970D01*
X296Y970D01*
X296Y972D01*
X298Y972D01*
X298Y974D01*
X300Y974D01*
X300Y976D01*
X302Y976D01*
X302Y978D01*
X304Y978D01*
X304Y980D01*
X306Y980D01*
X306Y982D01*
X310Y982D01*
X310Y984D01*
X312Y984D01*
X312Y986D01*
X316Y986D01*
X316Y988D01*
X322Y988D01*
X322Y990D01*
X244Y990D01*
G37*
D02*
G36*
X344Y990D02*
X344Y988D01*
X350Y988D01*
X350Y986D01*
X352Y986D01*
X352Y984D01*
X356Y984D01*
X356Y982D01*
X360Y982D01*
X360Y980D01*
X362Y980D01*
X362Y978D01*
X364Y978D01*
X364Y976D01*
X366Y976D01*
X366Y974D01*
X368Y974D01*
X368Y972D01*
X370Y972D01*
X370Y968D01*
X372Y968D01*
X372Y966D01*
X394Y966D01*
X394Y970D01*
X396Y970D01*
X396Y972D01*
X398Y972D01*
X398Y974D01*
X400Y974D01*
X400Y976D01*
X402Y976D01*
X402Y978D01*
X404Y978D01*
X404Y980D01*
X406Y980D01*
X406Y982D01*
X410Y982D01*
X410Y984D01*
X412Y984D01*
X412Y986D01*
X416Y986D01*
X416Y988D01*
X422Y988D01*
X422Y990D01*
X344Y990D01*
G37*
D02*
G36*
X754Y892D02*
X754Y884D01*
X756Y884D01*
X756Y882D01*
X760Y882D01*
X760Y880D01*
X762Y880D01*
X762Y878D01*
X764Y878D01*
X764Y876D01*
X766Y876D01*
X766Y874D01*
X768Y874D01*
X768Y872D01*
X770Y872D01*
X770Y870D01*
X772Y870D01*
X772Y866D01*
X792Y866D01*
X792Y868D01*
X794Y868D01*
X794Y870D01*
X796Y870D01*
X796Y872D01*
X798Y872D01*
X798Y876D01*
X800Y876D01*
X800Y878D01*
X804Y878D01*
X804Y880D01*
X806Y880D01*
X806Y882D01*
X808Y882D01*
X808Y884D01*
X812Y884D01*
X812Y886D01*
X816Y886D01*
X816Y888D01*
X820Y888D01*
X820Y890D01*
X828Y890D01*
X828Y892D01*
X754Y892D01*
G37*
D02*
G36*
X40Y792D02*
X40Y696D01*
X126Y696D01*
X126Y698D01*
X120Y698D01*
X120Y700D01*
X114Y700D01*
X114Y702D01*
X110Y702D01*
X110Y704D01*
X108Y704D01*
X108Y706D01*
X106Y706D01*
X106Y708D01*
X102Y708D01*
X102Y710D01*
X100Y710D01*
X100Y712D01*
X98Y712D01*
X98Y714D01*
X96Y714D01*
X96Y718D01*
X94Y718D01*
X94Y720D01*
X92Y720D01*
X92Y724D01*
X90Y724D01*
X90Y728D01*
X88Y728D01*
X88Y732D01*
X86Y732D01*
X86Y754D01*
X88Y754D01*
X88Y760D01*
X90Y760D01*
X90Y764D01*
X92Y764D01*
X92Y768D01*
X94Y768D01*
X94Y770D01*
X96Y770D01*
X96Y772D01*
X98Y772D01*
X98Y776D01*
X100Y776D01*
X100Y778D01*
X104Y778D01*
X104Y780D01*
X106Y780D01*
X106Y782D01*
X108Y782D01*
X108Y784D01*
X112Y784D01*
X112Y786D01*
X116Y786D01*
X116Y788D01*
X120Y788D01*
X120Y790D01*
X128Y790D01*
X128Y792D01*
X40Y792D01*
G37*
D02*
G36*
X40Y696D02*
X40Y694D01*
X210Y694D01*
X210Y696D01*
X40Y696D01*
G37*
D02*
G36*
X40Y696D02*
X40Y694D01*
X210Y694D01*
X210Y696D01*
X40Y696D01*
G37*
D02*
G36*
X40Y694D02*
X40Y92D01*
X82Y92D01*
X82Y194D01*
X110Y194D01*
X110Y250D01*
X112Y250D01*
X112Y256D01*
X114Y256D01*
X114Y258D01*
X116Y258D01*
X116Y260D01*
X118Y260D01*
X118Y262D01*
X120Y262D01*
X120Y264D01*
X124Y264D01*
X124Y266D01*
X210Y266D01*
X210Y694D01*
X40Y694D01*
G37*
D02*
G36*
X654Y686D02*
X654Y678D01*
X656Y678D01*
X656Y676D01*
X658Y676D01*
X658Y674D01*
X660Y674D01*
X660Y672D01*
X662Y672D01*
X662Y670D01*
X664Y670D01*
X664Y668D01*
X666Y668D01*
X666Y664D01*
X668Y664D01*
X668Y662D01*
X670Y662D01*
X670Y658D01*
X672Y658D01*
X672Y652D01*
X692Y652D01*
X692Y654D01*
X694Y654D01*
X694Y660D01*
X696Y660D01*
X696Y662D01*
X698Y662D01*
X698Y666D01*
X700Y666D01*
X700Y668D01*
X702Y668D01*
X702Y670D01*
X704Y670D01*
X704Y672D01*
X706Y672D01*
X706Y674D01*
X708Y674D01*
X708Y676D01*
X710Y676D01*
X710Y678D01*
X712Y678D01*
X712Y680D01*
X716Y680D01*
X716Y682D01*
X722Y682D01*
X722Y684D01*
X728Y684D01*
X728Y686D01*
X654Y686D01*
G37*
D02*
G36*
X472Y636D02*
X472Y630D01*
X470Y630D01*
X470Y626D01*
X468Y626D01*
X468Y622D01*
X466Y622D01*
X466Y620D01*
X464Y620D01*
X464Y618D01*
X462Y618D01*
X462Y616D01*
X460Y616D01*
X460Y614D01*
X458Y614D01*
X458Y612D01*
X456Y612D01*
X456Y610D01*
X454Y610D01*
X454Y602D01*
X526Y602D01*
X526Y604D01*
X520Y604D01*
X520Y606D01*
X516Y606D01*
X516Y608D01*
X512Y608D01*
X512Y610D01*
X510Y610D01*
X510Y612D01*
X506Y612D01*
X506Y614D01*
X504Y614D01*
X504Y616D01*
X502Y616D01*
X502Y620D01*
X500Y620D01*
X500Y622D01*
X498Y622D01*
X498Y624D01*
X496Y624D01*
X496Y628D01*
X494Y628D01*
X494Y634D01*
X492Y634D01*
X492Y636D01*
X472Y636D01*
G37*
D02*
G36*
X572Y636D02*
X572Y630D01*
X570Y630D01*
X570Y626D01*
X568Y626D01*
X568Y622D01*
X566Y622D01*
X566Y620D01*
X564Y620D01*
X564Y618D01*
X562Y618D01*
X562Y616D01*
X560Y616D01*
X560Y614D01*
X558Y614D01*
X558Y612D01*
X556Y612D01*
X556Y610D01*
X554Y610D01*
X554Y608D01*
X550Y608D01*
X550Y606D01*
X546Y606D01*
X546Y604D01*
X540Y604D01*
X540Y602D01*
X626Y602D01*
X626Y604D01*
X620Y604D01*
X620Y606D01*
X616Y606D01*
X616Y608D01*
X612Y608D01*
X612Y610D01*
X610Y610D01*
X610Y612D01*
X606Y612D01*
X606Y614D01*
X604Y614D01*
X604Y616D01*
X602Y616D01*
X602Y620D01*
X600Y620D01*
X600Y622D01*
X598Y622D01*
X598Y624D01*
X596Y624D01*
X596Y628D01*
X594Y628D01*
X594Y634D01*
X592Y634D01*
X592Y636D01*
X572Y636D01*
G37*
D02*
G36*
X672Y636D02*
X672Y630D01*
X670Y630D01*
X670Y626D01*
X668Y626D01*
X668Y622D01*
X666Y622D01*
X666Y620D01*
X664Y620D01*
X664Y618D01*
X662Y618D01*
X662Y616D01*
X660Y616D01*
X660Y614D01*
X658Y614D01*
X658Y612D01*
X656Y612D01*
X656Y610D01*
X654Y610D01*
X654Y608D01*
X650Y608D01*
X650Y606D01*
X646Y606D01*
X646Y604D01*
X640Y604D01*
X640Y602D01*
X726Y602D01*
X726Y604D01*
X720Y604D01*
X720Y606D01*
X716Y606D01*
X716Y608D01*
X712Y608D01*
X712Y610D01*
X710Y610D01*
X710Y612D01*
X706Y612D01*
X706Y614D01*
X704Y614D01*
X704Y616D01*
X702Y616D01*
X702Y620D01*
X700Y620D01*
X700Y622D01*
X698Y622D01*
X698Y624D01*
X696Y624D01*
X696Y628D01*
X694Y628D01*
X694Y634D01*
X692Y634D01*
X692Y636D01*
X672Y636D01*
G37*
D02*
G36*
X454Y602D02*
X454Y600D01*
X900Y600D01*
X900Y602D01*
X454Y602D01*
G37*
D02*
G36*
X454Y602D02*
X454Y600D01*
X900Y600D01*
X900Y602D01*
X454Y602D01*
G37*
D02*
G36*
X454Y602D02*
X454Y600D01*
X900Y600D01*
X900Y602D01*
X454Y602D01*
G37*
D02*
G36*
X454Y602D02*
X454Y600D01*
X900Y600D01*
X900Y602D01*
X454Y602D01*
G37*
D02*
G36*
X454Y600D02*
X454Y492D01*
X836Y492D01*
X836Y490D01*
X844Y490D01*
X844Y488D01*
X850Y488D01*
X850Y486D01*
X854Y486D01*
X854Y484D01*
X856Y484D01*
X856Y482D01*
X860Y482D01*
X860Y480D01*
X862Y480D01*
X862Y478D01*
X864Y478D01*
X864Y476D01*
X866Y476D01*
X866Y474D01*
X868Y474D01*
X868Y472D01*
X870Y472D01*
X870Y470D01*
X872Y470D01*
X872Y466D01*
X874Y466D01*
X874Y462D01*
X876Y462D01*
X876Y458D01*
X878Y458D01*
X878Y452D01*
X880Y452D01*
X880Y436D01*
X878Y436D01*
X878Y430D01*
X876Y430D01*
X876Y424D01*
X874Y424D01*
X874Y422D01*
X872Y422D01*
X872Y418D01*
X870Y418D01*
X870Y416D01*
X868Y416D01*
X868Y414D01*
X866Y414D01*
X866Y412D01*
X864Y412D01*
X864Y410D01*
X862Y410D01*
X862Y408D01*
X860Y408D01*
X860Y406D01*
X858Y406D01*
X858Y404D01*
X854Y404D01*
X854Y402D01*
X850Y402D01*
X850Y400D01*
X846Y400D01*
X846Y398D01*
X840Y398D01*
X840Y396D01*
X900Y396D01*
X900Y600D01*
X454Y600D01*
G37*
D02*
G36*
X454Y492D02*
X454Y466D01*
X792Y466D01*
X792Y468D01*
X794Y468D01*
X794Y470D01*
X796Y470D01*
X796Y472D01*
X798Y472D01*
X798Y476D01*
X800Y476D01*
X800Y478D01*
X804Y478D01*
X804Y480D01*
X806Y480D01*
X806Y482D01*
X808Y482D01*
X808Y484D01*
X812Y484D01*
X812Y486D01*
X816Y486D01*
X816Y488D01*
X820Y488D01*
X820Y490D01*
X828Y490D01*
X828Y492D01*
X454Y492D01*
G37*
D02*
G36*
X356Y422D02*
X356Y396D01*
X826Y396D01*
X826Y398D01*
X820Y398D01*
X820Y400D01*
X814Y400D01*
X814Y402D01*
X810Y402D01*
X810Y404D01*
X808Y404D01*
X808Y406D01*
X806Y406D01*
X806Y408D01*
X802Y408D01*
X802Y410D01*
X800Y410D01*
X800Y412D01*
X798Y412D01*
X798Y414D01*
X796Y414D01*
X796Y418D01*
X794Y418D01*
X794Y420D01*
X792Y420D01*
X792Y422D01*
X356Y422D01*
G37*
D02*
G36*
X356Y396D02*
X356Y394D01*
X900Y394D01*
X900Y396D01*
X356Y396D01*
G37*
D02*
G36*
X356Y396D02*
X356Y394D01*
X900Y394D01*
X900Y396D01*
X356Y396D01*
G37*
D02*
G36*
X356Y394D02*
X356Y386D01*
X736Y386D01*
X736Y384D01*
X744Y384D01*
X744Y382D01*
X748Y382D01*
X748Y380D01*
X752Y380D01*
X752Y378D01*
X756Y378D01*
X756Y376D01*
X758Y376D01*
X758Y374D01*
X760Y374D01*
X760Y372D01*
X762Y372D01*
X762Y370D01*
X764Y370D01*
X764Y368D01*
X766Y368D01*
X766Y364D01*
X768Y364D01*
X768Y362D01*
X770Y362D01*
X770Y358D01*
X772Y358D01*
X772Y352D01*
X774Y352D01*
X774Y336D01*
X772Y336D01*
X772Y330D01*
X770Y330D01*
X770Y326D01*
X768Y326D01*
X768Y322D01*
X766Y322D01*
X766Y320D01*
X764Y320D01*
X764Y318D01*
X762Y318D01*
X762Y316D01*
X760Y316D01*
X760Y314D01*
X758Y314D01*
X758Y312D01*
X756Y312D01*
X756Y310D01*
X754Y310D01*
X754Y308D01*
X750Y308D01*
X750Y306D01*
X746Y306D01*
X746Y304D01*
X740Y304D01*
X740Y302D01*
X900Y302D01*
X900Y394D01*
X356Y394D01*
G37*
D02*
G36*
X356Y386D02*
X356Y302D01*
X354Y302D01*
X354Y196D01*
X426Y196D01*
X426Y198D01*
X420Y198D01*
X420Y200D01*
X414Y200D01*
X414Y202D01*
X410Y202D01*
X410Y204D01*
X408Y204D01*
X408Y206D01*
X406Y206D01*
X406Y208D01*
X402Y208D01*
X402Y210D01*
X400Y210D01*
X400Y212D01*
X398Y212D01*
X398Y214D01*
X396Y214D01*
X396Y218D01*
X394Y218D01*
X394Y220D01*
X392Y220D01*
X392Y224D01*
X390Y224D01*
X390Y228D01*
X388Y228D01*
X388Y232D01*
X386Y232D01*
X386Y254D01*
X388Y254D01*
X388Y260D01*
X390Y260D01*
X390Y264D01*
X392Y264D01*
X392Y268D01*
X394Y268D01*
X394Y270D01*
X396Y270D01*
X396Y272D01*
X398Y272D01*
X398Y276D01*
X400Y276D01*
X400Y278D01*
X404Y278D01*
X404Y280D01*
X406Y280D01*
X406Y282D01*
X408Y282D01*
X408Y284D01*
X410Y284D01*
X410Y312D01*
X406Y312D01*
X406Y314D01*
X404Y314D01*
X404Y316D01*
X402Y316D01*
X402Y320D01*
X400Y320D01*
X400Y322D01*
X398Y322D01*
X398Y324D01*
X396Y324D01*
X396Y328D01*
X394Y328D01*
X394Y334D01*
X392Y334D01*
X392Y354D01*
X394Y354D01*
X394Y360D01*
X396Y360D01*
X396Y362D01*
X398Y362D01*
X398Y366D01*
X400Y366D01*
X400Y368D01*
X402Y368D01*
X402Y370D01*
X404Y370D01*
X404Y372D01*
X406Y372D01*
X406Y374D01*
X408Y374D01*
X408Y376D01*
X410Y376D01*
X410Y378D01*
X412Y378D01*
X412Y380D01*
X416Y380D01*
X416Y382D01*
X422Y382D01*
X422Y384D01*
X428Y384D01*
X428Y386D01*
X356Y386D01*
G37*
D02*
G36*
X436Y386D02*
X436Y384D01*
X444Y384D01*
X444Y382D01*
X448Y382D01*
X448Y380D01*
X452Y380D01*
X452Y378D01*
X456Y378D01*
X456Y376D01*
X458Y376D01*
X458Y374D01*
X460Y374D01*
X460Y372D01*
X462Y372D01*
X462Y370D01*
X464Y370D01*
X464Y368D01*
X466Y368D01*
X466Y364D01*
X468Y364D01*
X468Y362D01*
X470Y362D01*
X470Y358D01*
X472Y358D01*
X472Y352D01*
X492Y352D01*
X492Y354D01*
X494Y354D01*
X494Y360D01*
X496Y360D01*
X496Y362D01*
X498Y362D01*
X498Y366D01*
X500Y366D01*
X500Y368D01*
X502Y368D01*
X502Y370D01*
X504Y370D01*
X504Y372D01*
X506Y372D01*
X506Y374D01*
X508Y374D01*
X508Y376D01*
X510Y376D01*
X510Y378D01*
X512Y378D01*
X512Y380D01*
X516Y380D01*
X516Y382D01*
X522Y382D01*
X522Y384D01*
X528Y384D01*
X528Y386D01*
X436Y386D01*
G37*
D02*
G36*
X536Y386D02*
X536Y384D01*
X544Y384D01*
X544Y382D01*
X548Y382D01*
X548Y380D01*
X552Y380D01*
X552Y378D01*
X556Y378D01*
X556Y376D01*
X558Y376D01*
X558Y374D01*
X560Y374D01*
X560Y372D01*
X562Y372D01*
X562Y370D01*
X564Y370D01*
X564Y368D01*
X566Y368D01*
X566Y364D01*
X568Y364D01*
X568Y362D01*
X570Y362D01*
X570Y358D01*
X572Y358D01*
X572Y352D01*
X592Y352D01*
X592Y354D01*
X594Y354D01*
X594Y360D01*
X596Y360D01*
X596Y362D01*
X598Y362D01*
X598Y366D01*
X600Y366D01*
X600Y368D01*
X602Y368D01*
X602Y370D01*
X604Y370D01*
X604Y372D01*
X606Y372D01*
X606Y374D01*
X608Y374D01*
X608Y376D01*
X610Y376D01*
X610Y378D01*
X612Y378D01*
X612Y380D01*
X616Y380D01*
X616Y382D01*
X622Y382D01*
X622Y384D01*
X628Y384D01*
X628Y386D01*
X536Y386D01*
G37*
D02*
G36*
X636Y386D02*
X636Y384D01*
X644Y384D01*
X644Y382D01*
X648Y382D01*
X648Y380D01*
X652Y380D01*
X652Y378D01*
X656Y378D01*
X656Y376D01*
X658Y376D01*
X658Y374D01*
X660Y374D01*
X660Y372D01*
X662Y372D01*
X662Y370D01*
X664Y370D01*
X664Y368D01*
X666Y368D01*
X666Y364D01*
X668Y364D01*
X668Y362D01*
X670Y362D01*
X670Y358D01*
X672Y358D01*
X672Y352D01*
X692Y352D01*
X692Y354D01*
X694Y354D01*
X694Y360D01*
X696Y360D01*
X696Y362D01*
X698Y362D01*
X698Y366D01*
X700Y366D01*
X700Y368D01*
X702Y368D01*
X702Y370D01*
X704Y370D01*
X704Y372D01*
X706Y372D01*
X706Y374D01*
X708Y374D01*
X708Y376D01*
X710Y376D01*
X710Y378D01*
X712Y378D01*
X712Y380D01*
X716Y380D01*
X716Y382D01*
X722Y382D01*
X722Y384D01*
X728Y384D01*
X728Y386D01*
X636Y386D01*
G37*
D02*
G36*
X472Y336D02*
X472Y330D01*
X470Y330D01*
X470Y326D01*
X468Y326D01*
X468Y322D01*
X466Y322D01*
X466Y320D01*
X464Y320D01*
X464Y318D01*
X462Y318D01*
X462Y316D01*
X460Y316D01*
X460Y314D01*
X458Y314D01*
X458Y312D01*
X456Y312D01*
X456Y310D01*
X454Y310D01*
X454Y302D01*
X526Y302D01*
X526Y304D01*
X520Y304D01*
X520Y306D01*
X516Y306D01*
X516Y308D01*
X512Y308D01*
X512Y310D01*
X510Y310D01*
X510Y312D01*
X506Y312D01*
X506Y314D01*
X504Y314D01*
X504Y316D01*
X502Y316D01*
X502Y320D01*
X500Y320D01*
X500Y322D01*
X498Y322D01*
X498Y324D01*
X496Y324D01*
X496Y328D01*
X494Y328D01*
X494Y334D01*
X492Y334D01*
X492Y336D01*
X472Y336D01*
G37*
D02*
G36*
X572Y336D02*
X572Y330D01*
X570Y330D01*
X570Y326D01*
X568Y326D01*
X568Y322D01*
X566Y322D01*
X566Y320D01*
X564Y320D01*
X564Y318D01*
X562Y318D01*
X562Y316D01*
X560Y316D01*
X560Y314D01*
X558Y314D01*
X558Y312D01*
X556Y312D01*
X556Y310D01*
X554Y310D01*
X554Y308D01*
X550Y308D01*
X550Y306D01*
X546Y306D01*
X546Y304D01*
X540Y304D01*
X540Y302D01*
X626Y302D01*
X626Y304D01*
X620Y304D01*
X620Y306D01*
X616Y306D01*
X616Y308D01*
X612Y308D01*
X612Y310D01*
X610Y310D01*
X610Y312D01*
X606Y312D01*
X606Y314D01*
X604Y314D01*
X604Y316D01*
X602Y316D01*
X602Y320D01*
X600Y320D01*
X600Y322D01*
X598Y322D01*
X598Y324D01*
X596Y324D01*
X596Y328D01*
X594Y328D01*
X594Y334D01*
X592Y334D01*
X592Y336D01*
X572Y336D01*
G37*
D02*
G36*
X672Y336D02*
X672Y330D01*
X670Y330D01*
X670Y326D01*
X668Y326D01*
X668Y322D01*
X666Y322D01*
X666Y320D01*
X664Y320D01*
X664Y318D01*
X662Y318D01*
X662Y316D01*
X660Y316D01*
X660Y314D01*
X658Y314D01*
X658Y312D01*
X656Y312D01*
X656Y310D01*
X654Y310D01*
X654Y308D01*
X650Y308D01*
X650Y306D01*
X646Y306D01*
X646Y304D01*
X640Y304D01*
X640Y302D01*
X726Y302D01*
X726Y304D01*
X720Y304D01*
X720Y306D01*
X716Y306D01*
X716Y308D01*
X712Y308D01*
X712Y310D01*
X710Y310D01*
X710Y312D01*
X706Y312D01*
X706Y314D01*
X704Y314D01*
X704Y316D01*
X702Y316D01*
X702Y320D01*
X700Y320D01*
X700Y322D01*
X698Y322D01*
X698Y324D01*
X696Y324D01*
X696Y328D01*
X694Y328D01*
X694Y334D01*
X692Y334D01*
X692Y336D01*
X672Y336D01*
G37*
D02*
G36*
X454Y302D02*
X454Y300D01*
X900Y300D01*
X900Y302D01*
X454Y302D01*
G37*
D02*
G36*
X454Y302D02*
X454Y300D01*
X900Y300D01*
X900Y302D01*
X454Y302D01*
G37*
D02*
G36*
X454Y302D02*
X454Y300D01*
X900Y300D01*
X900Y302D01*
X454Y302D01*
G37*
D02*
G36*
X454Y302D02*
X454Y300D01*
X900Y300D01*
X900Y302D01*
X454Y302D01*
G37*
D02*
G36*
X454Y300D02*
X454Y292D01*
X836Y292D01*
X836Y290D01*
X844Y290D01*
X844Y288D01*
X850Y288D01*
X850Y286D01*
X854Y286D01*
X854Y284D01*
X856Y284D01*
X856Y282D01*
X860Y282D01*
X860Y280D01*
X862Y280D01*
X862Y278D01*
X864Y278D01*
X864Y276D01*
X866Y276D01*
X866Y274D01*
X868Y274D01*
X868Y272D01*
X870Y272D01*
X870Y270D01*
X872Y270D01*
X872Y266D01*
X874Y266D01*
X874Y262D01*
X876Y262D01*
X876Y258D01*
X878Y258D01*
X878Y252D01*
X880Y252D01*
X880Y236D01*
X878Y236D01*
X878Y230D01*
X876Y230D01*
X876Y224D01*
X874Y224D01*
X874Y222D01*
X872Y222D01*
X872Y218D01*
X870Y218D01*
X870Y216D01*
X868Y216D01*
X868Y214D01*
X866Y214D01*
X866Y212D01*
X864Y212D01*
X864Y210D01*
X862Y210D01*
X862Y208D01*
X860Y208D01*
X860Y206D01*
X858Y206D01*
X858Y204D01*
X854Y204D01*
X854Y180D01*
X856Y180D01*
X856Y142D01*
X854Y142D01*
X854Y134D01*
X852Y134D01*
X852Y130D01*
X850Y130D01*
X850Y128D01*
X848Y128D01*
X848Y126D01*
X844Y126D01*
X844Y124D01*
X840Y124D01*
X840Y122D01*
X772Y122D01*
X772Y118D01*
X770Y118D01*
X770Y116D01*
X768Y116D01*
X768Y114D01*
X766Y114D01*
X766Y112D01*
X764Y112D01*
X764Y110D01*
X762Y110D01*
X762Y108D01*
X760Y108D01*
X760Y106D01*
X756Y106D01*
X756Y104D01*
X754Y104D01*
X754Y102D01*
X750Y102D01*
X750Y100D01*
X744Y100D01*
X744Y98D01*
X736Y98D01*
X736Y96D01*
X900Y96D01*
X900Y300D01*
X454Y300D01*
G37*
D02*
G36*
X454Y292D02*
X454Y284D01*
X456Y284D01*
X456Y282D01*
X460Y282D01*
X460Y280D01*
X462Y280D01*
X462Y278D01*
X464Y278D01*
X464Y276D01*
X466Y276D01*
X466Y274D01*
X468Y274D01*
X468Y272D01*
X470Y272D01*
X470Y270D01*
X472Y270D01*
X472Y266D01*
X474Y266D01*
X474Y262D01*
X476Y262D01*
X476Y258D01*
X478Y258D01*
X478Y252D01*
X480Y252D01*
X480Y236D01*
X478Y236D01*
X478Y230D01*
X476Y230D01*
X476Y224D01*
X474Y224D01*
X474Y222D01*
X472Y222D01*
X472Y218D01*
X470Y218D01*
X470Y216D01*
X468Y216D01*
X468Y214D01*
X466Y214D01*
X466Y212D01*
X464Y212D01*
X464Y210D01*
X462Y210D01*
X462Y208D01*
X460Y208D01*
X460Y206D01*
X458Y206D01*
X458Y204D01*
X454Y204D01*
X454Y202D01*
X450Y202D01*
X450Y200D01*
X446Y200D01*
X446Y198D01*
X440Y198D01*
X440Y196D01*
X810Y196D01*
X810Y204D01*
X808Y204D01*
X808Y206D01*
X806Y206D01*
X806Y208D01*
X802Y208D01*
X802Y210D01*
X800Y210D01*
X800Y212D01*
X798Y212D01*
X798Y214D01*
X796Y214D01*
X796Y218D01*
X794Y218D01*
X794Y220D01*
X792Y220D01*
X792Y224D01*
X790Y224D01*
X790Y228D01*
X788Y228D01*
X788Y232D01*
X786Y232D01*
X786Y254D01*
X788Y254D01*
X788Y260D01*
X790Y260D01*
X790Y264D01*
X792Y264D01*
X792Y268D01*
X794Y268D01*
X794Y270D01*
X796Y270D01*
X796Y272D01*
X798Y272D01*
X798Y276D01*
X800Y276D01*
X800Y278D01*
X804Y278D01*
X804Y280D01*
X806Y280D01*
X806Y282D01*
X808Y282D01*
X808Y284D01*
X812Y284D01*
X812Y286D01*
X816Y286D01*
X816Y288D01*
X820Y288D01*
X820Y290D01*
X828Y290D01*
X828Y292D01*
X454Y292D01*
G37*
D02*
G36*
X354Y196D02*
X354Y194D01*
X810Y194D01*
X810Y196D01*
X354Y196D01*
G37*
D02*
G36*
X354Y196D02*
X354Y194D01*
X810Y194D01*
X810Y196D01*
X354Y196D01*
G37*
D02*
G36*
X354Y194D02*
X354Y190D01*
X744Y190D01*
X744Y188D01*
X750Y188D01*
X750Y186D01*
X752Y186D01*
X752Y184D01*
X756Y184D01*
X756Y182D01*
X760Y182D01*
X760Y180D01*
X762Y180D01*
X762Y178D01*
X764Y178D01*
X764Y176D01*
X766Y176D01*
X766Y174D01*
X768Y174D01*
X768Y172D01*
X770Y172D01*
X770Y168D01*
X772Y168D01*
X772Y166D01*
X810Y166D01*
X810Y194D01*
X354Y194D01*
G37*
D02*
G36*
X354Y190D02*
X354Y188D01*
X358Y188D01*
X358Y186D01*
X360Y186D01*
X360Y184D01*
X362Y184D01*
X362Y182D01*
X366Y182D01*
X366Y180D01*
X368Y180D01*
X368Y178D01*
X370Y178D01*
X370Y174D01*
X372Y174D01*
X372Y172D01*
X374Y172D01*
X374Y170D01*
X376Y170D01*
X376Y166D01*
X486Y166D01*
X486Y190D01*
X354Y190D01*
G37*
D02*
G36*
X580Y190D02*
X580Y180D01*
X644Y180D01*
X644Y178D01*
X650Y178D01*
X650Y176D01*
X652Y176D01*
X652Y174D01*
X656Y174D01*
X656Y172D01*
X660Y172D01*
X660Y170D01*
X662Y170D01*
X662Y168D01*
X664Y168D01*
X664Y166D01*
X666Y166D01*
X666Y164D01*
X668Y164D01*
X668Y162D01*
X670Y162D01*
X670Y160D01*
X690Y160D01*
X690Y164D01*
X692Y164D01*
X692Y166D01*
X694Y166D01*
X694Y170D01*
X696Y170D01*
X696Y172D01*
X698Y172D01*
X698Y174D01*
X700Y174D01*
X700Y176D01*
X702Y176D01*
X702Y178D01*
X704Y178D01*
X704Y180D01*
X706Y180D01*
X706Y182D01*
X708Y182D01*
X708Y184D01*
X712Y184D01*
X712Y186D01*
X716Y186D01*
X716Y188D01*
X722Y188D01*
X722Y190D01*
X580Y190D01*
G37*
D02*
G36*
X580Y180D02*
X580Y164D01*
X600Y164D01*
X600Y166D01*
X602Y166D01*
X602Y168D01*
X604Y168D01*
X604Y170D01*
X606Y170D01*
X606Y172D01*
X608Y172D01*
X608Y174D01*
X612Y174D01*
X612Y176D01*
X616Y176D01*
X616Y178D01*
X622Y178D01*
X622Y180D01*
X580Y180D01*
G37*
D02*
G36*
X376Y122D02*
X376Y118D01*
X374Y118D01*
X374Y116D01*
X372Y116D01*
X372Y112D01*
X370Y112D01*
X370Y110D01*
X368Y110D01*
X368Y108D01*
X366Y108D01*
X366Y106D01*
X364Y106D01*
X364Y104D01*
X360Y104D01*
X360Y102D01*
X358Y102D01*
X358Y100D01*
X354Y100D01*
X354Y98D01*
X350Y98D01*
X350Y96D01*
X486Y96D01*
X486Y122D01*
X376Y122D01*
G37*
D02*
G36*
X676Y118D02*
X676Y116D01*
X674Y116D01*
X674Y112D01*
X672Y112D01*
X672Y108D01*
X670Y108D01*
X670Y106D01*
X668Y106D01*
X668Y104D01*
X666Y104D01*
X666Y102D01*
X664Y102D01*
X664Y100D01*
X662Y100D01*
X662Y98D01*
X660Y98D01*
X660Y96D01*
X730Y96D01*
X730Y98D01*
X720Y98D01*
X720Y100D01*
X716Y100D01*
X716Y102D01*
X712Y102D01*
X712Y104D01*
X708Y104D01*
X708Y106D01*
X706Y106D01*
X706Y108D01*
X704Y108D01*
X704Y110D01*
X700Y110D01*
X700Y114D01*
X698Y114D01*
X698Y116D01*
X696Y116D01*
X696Y118D01*
X676Y118D01*
G37*
D02*
G36*
X272Y116D02*
X272Y112D01*
X270Y112D01*
X270Y110D01*
X268Y110D01*
X268Y108D01*
X266Y108D01*
X266Y106D01*
X264Y106D01*
X264Y104D01*
X260Y104D01*
X260Y102D01*
X258Y102D01*
X258Y100D01*
X254Y100D01*
X254Y98D01*
X250Y98D01*
X250Y96D01*
X246Y96D01*
X246Y94D01*
X236Y94D01*
X236Y92D01*
X328Y92D01*
X328Y94D01*
X320Y94D01*
X320Y96D01*
X314Y96D01*
X314Y98D01*
X310Y98D01*
X310Y100D01*
X308Y100D01*
X308Y102D01*
X304Y102D01*
X304Y104D01*
X302Y104D01*
X302Y106D01*
X300Y106D01*
X300Y108D01*
X298Y108D01*
X298Y110D01*
X296Y110D01*
X296Y112D01*
X294Y112D01*
X294Y114D01*
X292Y114D01*
X292Y116D01*
X272Y116D01*
G37*
D02*
G36*
X184Y104D02*
X184Y94D01*
X182Y94D01*
X182Y92D01*
X228Y92D01*
X228Y94D01*
X220Y94D01*
X220Y96D01*
X214Y96D01*
X214Y98D01*
X210Y98D01*
X210Y100D01*
X208Y100D01*
X208Y102D01*
X204Y102D01*
X204Y104D01*
X184Y104D01*
G37*
D02*
G36*
X580Y104D02*
X580Y98D01*
X578Y98D01*
X578Y96D01*
X606Y96D01*
X606Y98D01*
X604Y98D01*
X604Y100D01*
X600Y100D01*
X600Y104D01*
X580Y104D01*
G37*
D02*
G36*
X346Y96D02*
X346Y94D01*
X608Y94D01*
X608Y96D01*
X346Y96D01*
G37*
D02*
G36*
X346Y96D02*
X346Y94D01*
X608Y94D01*
X608Y96D01*
X346Y96D01*
G37*
D02*
G36*
X656Y96D02*
X656Y94D01*
X900Y94D01*
X900Y96D01*
X656Y96D01*
G37*
D02*
G36*
X656Y96D02*
X656Y94D01*
X900Y94D01*
X900Y96D01*
X656Y96D01*
G37*
D02*
G36*
X336Y94D02*
X336Y92D01*
X612Y92D01*
X612Y94D01*
X336Y94D01*
G37*
D02*
G36*
X654Y94D02*
X654Y92D01*
X650Y92D01*
X650Y90D01*
X644Y90D01*
X644Y88D01*
X636Y88D01*
X636Y86D01*
X900Y86D01*
X900Y94D01*
X654Y94D01*
G37*
D02*
G36*
X40Y92D02*
X40Y90D01*
X616Y90D01*
X616Y92D01*
X40Y92D01*
G37*
D02*
G36*
X40Y92D02*
X40Y90D01*
X616Y90D01*
X616Y92D01*
X40Y92D01*
G37*
D02*
G36*
X40Y92D02*
X40Y90D01*
X616Y90D01*
X616Y92D01*
X40Y92D01*
G37*
D02*
G36*
X40Y92D02*
X40Y90D01*
X616Y90D01*
X616Y92D01*
X40Y92D01*
G37*
D02*
G36*
X40Y90D02*
X40Y86D01*
X630Y86D01*
X630Y88D01*
X620Y88D01*
X620Y90D01*
X40Y90D01*
G37*
D02*
G36*
X40Y86D02*
X40Y84D01*
X900Y84D01*
X900Y86D01*
X40Y86D01*
G37*
D02*
G36*
X40Y86D02*
X40Y84D01*
X900Y84D01*
X900Y86D01*
X40Y86D01*
G37*
D02*
G36*
X40Y84D02*
X40Y42D01*
X900Y42D01*
X900Y84D01*
X40Y84D01*
G37*
D02*
G36*
X610Y184D02*
X653Y184D01*
X653Y156D01*
X610Y156D01*
X610Y184D01*
G37*
D02*
G36*
X610Y118D02*
X653Y118D01*
X653Y86D01*
X610Y86D01*
X610Y118D01*
G37*
D02*
G36*
X208Y126D02*
X255Y126D01*
X255Y92D01*
X208Y92D01*
X208Y126D01*
G37*
D02*
G36*
X713Y632D02*
X750Y632D01*
X750Y602D01*
X713Y602D01*
X713Y632D01*
G37*
D02*
G36*
X746Y665D02*
X774Y665D01*
X774Y628D01*
X746Y628D01*
X746Y665D01*
G37*
D02*
G36*
X613Y332D02*
X650Y332D01*
X650Y302D01*
X613Y302D01*
X613Y332D01*
G37*
D02*
G36*
X513Y332D02*
X550Y332D01*
X550Y302D01*
X513Y302D01*
X513Y332D01*
G37*
D02*
G36*
X260Y1094D02*
X303Y1094D01*
X303Y1066D01*
X260Y1066D01*
X260Y1094D01*
G37*
D02*
G36*
X232Y1068D02*
X262Y1068D01*
X262Y1025D01*
X232Y1025D01*
X232Y1068D01*
G37*
D02*
G36*
X360Y1094D02*
X403Y1094D01*
X403Y1066D01*
X360Y1066D01*
X360Y1094D01*
G37*
D02*
G36*
X460Y1094D02*
X503Y1094D01*
X503Y1066D01*
X460Y1066D01*
X460Y1094D01*
G37*
D02*
G54D16*
X545Y1081D02*
X618Y1081D01*
X545Y1080D02*
X618Y1080D01*
X545Y1079D02*
X618Y1079D01*
X545Y1078D02*
X618Y1078D01*
X545Y1077D02*
X618Y1077D01*
X545Y1076D02*
X618Y1076D01*
X545Y1075D02*
X618Y1075D01*
X545Y1074D02*
X618Y1074D01*
X545Y1073D02*
X618Y1073D01*
X545Y1072D02*
X618Y1072D01*
X545Y1071D02*
X618Y1071D01*
X545Y1070D02*
X618Y1070D01*
X545Y1069D02*
X618Y1069D01*
X545Y1068D02*
X618Y1068D01*
X545Y1067D02*
X618Y1067D01*
X545Y1066D02*
X618Y1066D01*
X545Y1065D02*
X618Y1065D01*
X545Y1064D02*
X579Y1064D01*
X584Y1064D02*
X618Y1064D01*
X545Y1063D02*
X575Y1063D01*
X589Y1063D02*
X618Y1063D01*
X545Y1062D02*
X572Y1062D01*
X591Y1062D02*
X618Y1062D01*
X545Y1061D02*
X571Y1061D01*
X593Y1061D02*
X618Y1061D01*
X545Y1060D02*
X569Y1060D01*
X594Y1060D02*
X618Y1060D01*
X545Y1059D02*
X568Y1059D01*
X595Y1059D02*
X618Y1059D01*
X545Y1058D02*
X567Y1058D01*
X596Y1058D02*
X618Y1058D01*
X545Y1057D02*
X566Y1057D01*
X597Y1057D02*
X618Y1057D01*
X545Y1056D02*
X565Y1056D01*
X598Y1056D02*
X618Y1056D01*
X545Y1055D02*
X565Y1055D01*
X599Y1055D02*
X618Y1055D01*
X545Y1054D02*
X564Y1054D01*
X599Y1054D02*
X618Y1054D01*
X545Y1053D02*
X564Y1053D01*
X600Y1053D02*
X618Y1053D01*
X545Y1052D02*
X563Y1052D01*
X600Y1052D02*
X618Y1052D01*
X545Y1051D02*
X563Y1051D01*
X601Y1051D02*
X618Y1051D01*
X545Y1050D02*
X562Y1050D01*
X601Y1050D02*
X618Y1050D01*
X545Y1049D02*
X562Y1049D01*
X601Y1049D02*
X618Y1049D01*
X545Y1048D02*
X562Y1048D01*
X602Y1048D02*
X618Y1048D01*
X545Y1047D02*
X562Y1047D01*
X602Y1047D02*
X618Y1047D01*
X545Y1046D02*
X562Y1046D01*
X602Y1046D02*
X618Y1046D01*
X545Y1045D02*
X562Y1045D01*
X602Y1045D02*
X618Y1045D01*
X545Y1044D02*
X562Y1044D01*
X602Y1044D02*
X618Y1044D01*
X545Y1043D02*
X562Y1043D01*
X602Y1043D02*
X618Y1043D01*
X545Y1042D02*
X562Y1042D01*
X602Y1042D02*
X618Y1042D01*
X545Y1041D02*
X562Y1041D01*
X602Y1041D02*
X618Y1041D01*
X545Y1040D02*
X562Y1040D01*
X601Y1040D02*
X618Y1040D01*
X545Y1039D02*
X562Y1039D01*
X601Y1039D02*
X618Y1039D01*
X545Y1038D02*
X563Y1038D01*
X601Y1038D02*
X618Y1038D01*
X545Y1037D02*
X563Y1037D01*
X600Y1037D02*
X618Y1037D01*
X545Y1036D02*
X564Y1036D01*
X600Y1036D02*
X618Y1036D01*
X545Y1035D02*
X564Y1035D01*
X599Y1035D02*
X618Y1035D01*
X545Y1034D02*
X565Y1034D01*
X599Y1034D02*
X618Y1034D01*
X545Y1033D02*
X565Y1033D01*
X598Y1033D02*
X618Y1033D01*
X545Y1032D02*
X566Y1032D01*
X597Y1032D02*
X618Y1032D01*
X545Y1031D02*
X567Y1031D01*
X596Y1031D02*
X618Y1031D01*
X545Y1030D02*
X568Y1030D01*
X595Y1030D02*
X618Y1030D01*
X545Y1029D02*
X569Y1029D01*
X594Y1029D02*
X618Y1029D01*
X545Y1028D02*
X571Y1028D01*
X593Y1028D02*
X618Y1028D01*
X545Y1027D02*
X572Y1027D01*
X591Y1027D02*
X618Y1027D01*
X545Y1026D02*
X575Y1026D01*
X589Y1026D02*
X618Y1026D01*
X545Y1025D02*
X580Y1025D01*
X584Y1025D02*
X618Y1025D01*
X545Y1024D02*
X618Y1024D01*
X545Y1023D02*
X618Y1023D01*
X545Y1022D02*
X618Y1022D01*
X545Y1021D02*
X618Y1021D01*
X545Y1020D02*
X618Y1020D01*
X545Y1019D02*
X618Y1019D01*
X545Y1018D02*
X618Y1018D01*
X545Y1017D02*
X618Y1017D01*
X545Y1016D02*
X618Y1016D01*
X545Y1015D02*
X618Y1015D01*
X545Y1014D02*
X618Y1014D01*
X545Y1013D02*
X618Y1013D01*
X545Y1012D02*
X618Y1012D01*
X545Y1011D02*
X618Y1011D01*
X545Y1010D02*
X618Y1010D01*
X545Y1009D02*
X618Y1009D01*
X545Y1008D02*
X618Y1008D01*
X496Y182D02*
X568Y182D01*
X495Y181D02*
X568Y181D01*
X495Y180D02*
X568Y180D01*
X495Y179D02*
X568Y179D01*
X495Y178D02*
X568Y178D01*
X495Y177D02*
X568Y177D01*
X495Y176D02*
X568Y176D01*
X495Y175D02*
X568Y175D01*
X495Y174D02*
X568Y174D01*
X495Y173D02*
X568Y173D01*
X495Y172D02*
X568Y172D01*
X495Y171D02*
X568Y171D01*
X495Y170D02*
X568Y170D01*
X495Y169D02*
X568Y169D01*
X495Y168D02*
X568Y168D01*
X495Y167D02*
X568Y167D01*
X495Y166D02*
X568Y166D01*
X495Y165D02*
X531Y165D01*
X533Y165D02*
X568Y165D01*
X495Y164D02*
X525Y164D01*
X538Y164D02*
X568Y164D01*
X495Y163D02*
X523Y163D01*
X541Y163D02*
X568Y163D01*
X495Y162D02*
X521Y162D01*
X543Y162D02*
X568Y162D01*
X495Y161D02*
X519Y161D01*
X544Y161D02*
X568Y161D01*
X495Y160D02*
X518Y160D01*
X545Y160D02*
X568Y160D01*
X495Y159D02*
X517Y159D01*
X547Y159D02*
X568Y159D01*
X495Y158D02*
X516Y158D01*
X547Y158D02*
X568Y158D01*
X495Y157D02*
X515Y157D01*
X548Y157D02*
X568Y157D01*
X495Y156D02*
X515Y156D01*
X549Y156D02*
X568Y156D01*
X495Y155D02*
X514Y155D01*
X549Y155D02*
X568Y155D01*
X495Y154D02*
X513Y154D01*
X550Y154D02*
X568Y154D01*
X495Y153D02*
X513Y153D01*
X551Y153D02*
X568Y153D01*
X495Y152D02*
X513Y152D01*
X551Y152D02*
X568Y152D01*
X495Y151D02*
X512Y151D01*
X551Y151D02*
X568Y151D01*
X495Y150D02*
X512Y150D01*
X552Y150D02*
X568Y150D01*
X495Y149D02*
X512Y149D01*
X552Y149D02*
X568Y149D01*
X495Y148D02*
X512Y148D01*
X552Y148D02*
X568Y148D01*
X495Y147D02*
X511Y147D01*
X552Y147D02*
X568Y147D01*
X495Y146D02*
X511Y146D01*
X552Y146D02*
X568Y146D01*
X495Y145D02*
X511Y145D01*
X552Y145D02*
X568Y145D01*
X495Y144D02*
X511Y144D01*
X552Y144D02*
X568Y144D01*
X495Y143D02*
X511Y143D01*
X552Y143D02*
X568Y143D01*
X495Y142D02*
X512Y142D01*
X552Y142D02*
X568Y142D01*
X495Y141D02*
X512Y141D01*
X552Y141D02*
X568Y141D01*
X495Y140D02*
X512Y140D01*
X551Y140D02*
X568Y140D01*
X495Y139D02*
X512Y139D01*
X551Y139D02*
X568Y139D01*
X495Y138D02*
X513Y138D01*
X551Y138D02*
X568Y138D01*
X495Y137D02*
X513Y137D01*
X550Y137D02*
X568Y137D01*
X495Y136D02*
X514Y136D01*
X550Y136D02*
X568Y136D01*
X495Y135D02*
X514Y135D01*
X549Y135D02*
X568Y135D01*
X495Y134D02*
X515Y134D01*
X549Y134D02*
X568Y134D01*
X495Y133D02*
X515Y133D01*
X548Y133D02*
X568Y133D01*
X495Y132D02*
X516Y132D01*
X547Y132D02*
X568Y132D01*
X495Y131D02*
X517Y131D01*
X546Y131D02*
X568Y131D01*
X495Y130D02*
X518Y130D01*
X545Y130D02*
X568Y130D01*
X495Y129D02*
X519Y129D01*
X544Y129D02*
X568Y129D01*
X495Y128D02*
X521Y128D01*
X542Y128D02*
X568Y128D01*
X495Y127D02*
X523Y127D01*
X541Y127D02*
X568Y127D01*
X495Y126D02*
X526Y126D01*
X538Y126D02*
X568Y126D01*
X495Y125D02*
X568Y125D01*
X495Y124D02*
X568Y124D01*
X495Y123D02*
X568Y123D01*
X495Y122D02*
X568Y122D01*
X495Y121D02*
X568Y121D01*
X495Y120D02*
X568Y120D01*
X495Y119D02*
X568Y119D01*
X495Y118D02*
X568Y118D01*
X495Y117D02*
X568Y117D01*
X495Y116D02*
X568Y116D01*
X495Y115D02*
X568Y115D01*
X495Y114D02*
X568Y114D01*
X495Y113D02*
X568Y113D01*
X495Y112D02*
X568Y112D01*
X495Y111D02*
X568Y111D01*
X495Y110D02*
X568Y110D01*
X495Y109D02*
X568Y109D01*
D02*
G04 End of Copper0*
M02*