G04 MADE WITH FRITZING*
G04 WWW.FRITZING.ORG*
G04 DOUBLE SIDED*
G04 HOLES PLATED*
G04 CONTOUR ON CENTER OF CONTOUR VECTOR*
%ASAXBY*%
%FSLAX23Y23*%
%MOIN*%
%OFA0B0*%
%SFA1.0B1.0*%
%ADD10C,0.084000*%
%ADD11C,0.135984*%
%ADD12C,0.073000*%
%ADD13C,0.092000*%
%ADD14C,0.085000*%
%ADD15R,0.092000X0.092000*%
%ADD16R,0.001000X0.001000*%
%LNMASK0*%
G90*
G70*
G54D10*
X233Y944D03*
X283Y1044D03*
X333Y944D03*
X433Y944D03*
X533Y944D03*
X383Y1044D03*
X483Y1044D03*
X583Y1044D03*
G54D11*
X633Y1294D03*
X183Y1294D03*
G54D12*
X433Y344D03*
X533Y344D03*
X633Y344D03*
X733Y344D03*
X733Y644D03*
X633Y644D03*
X533Y644D03*
X433Y644D03*
G54D13*
X133Y144D03*
X233Y144D03*
X333Y144D03*
G54D10*
X533Y144D03*
X633Y134D03*
X733Y144D03*
G54D14*
X133Y744D03*
X533Y744D03*
X333Y844D03*
X733Y844D03*
X833Y844D03*
X833Y444D03*
X433Y244D03*
X833Y244D03*
G54D15*
X133Y144D03*
G54D16*
X540Y1086D02*
X623Y1086D01*
X540Y1085D02*
X623Y1085D01*
X540Y1084D02*
X623Y1084D01*
X540Y1083D02*
X623Y1083D01*
X540Y1082D02*
X623Y1082D01*
X540Y1081D02*
X623Y1081D01*
X540Y1080D02*
X623Y1080D01*
X540Y1079D02*
X623Y1079D01*
X540Y1078D02*
X623Y1078D01*
X540Y1077D02*
X623Y1077D01*
X540Y1076D02*
X623Y1076D01*
X540Y1075D02*
X623Y1075D01*
X540Y1074D02*
X623Y1074D01*
X540Y1073D02*
X623Y1073D01*
X540Y1072D02*
X623Y1072D01*
X540Y1071D02*
X623Y1071D01*
X540Y1070D02*
X623Y1070D01*
X540Y1069D02*
X623Y1069D01*
X540Y1068D02*
X623Y1068D01*
X540Y1067D02*
X623Y1067D01*
X540Y1066D02*
X623Y1066D01*
X540Y1065D02*
X623Y1065D01*
X540Y1064D02*
X623Y1064D01*
X540Y1063D02*
X623Y1063D01*
X540Y1062D02*
X623Y1062D01*
X540Y1061D02*
X623Y1061D01*
X540Y1060D02*
X623Y1060D01*
X540Y1059D02*
X579Y1059D01*
X584Y1059D02*
X623Y1059D01*
X540Y1058D02*
X575Y1058D01*
X588Y1058D02*
X623Y1058D01*
X540Y1057D02*
X573Y1057D01*
X590Y1057D02*
X623Y1057D01*
X540Y1056D02*
X572Y1056D01*
X592Y1056D02*
X623Y1056D01*
X540Y1055D02*
X570Y1055D01*
X593Y1055D02*
X623Y1055D01*
X540Y1054D02*
X570Y1054D01*
X594Y1054D02*
X623Y1054D01*
X540Y1053D02*
X569Y1053D01*
X595Y1053D02*
X623Y1053D01*
X540Y1052D02*
X568Y1052D01*
X595Y1052D02*
X623Y1052D01*
X540Y1051D02*
X568Y1051D01*
X596Y1051D02*
X623Y1051D01*
X540Y1050D02*
X567Y1050D01*
X596Y1050D02*
X623Y1050D01*
X540Y1049D02*
X567Y1049D01*
X596Y1049D02*
X623Y1049D01*
X540Y1048D02*
X567Y1048D01*
X597Y1048D02*
X623Y1048D01*
X540Y1047D02*
X567Y1047D01*
X597Y1047D02*
X623Y1047D01*
X540Y1046D02*
X567Y1046D01*
X597Y1046D02*
X623Y1046D01*
X540Y1045D02*
X567Y1045D01*
X597Y1045D02*
X623Y1045D01*
X540Y1044D02*
X567Y1044D01*
X597Y1044D02*
X623Y1044D01*
X540Y1043D02*
X567Y1043D01*
X597Y1043D02*
X623Y1043D01*
X540Y1042D02*
X567Y1042D01*
X597Y1042D02*
X623Y1042D01*
X540Y1041D02*
X567Y1041D01*
X597Y1041D02*
X623Y1041D01*
X540Y1040D02*
X567Y1040D01*
X596Y1040D02*
X623Y1040D01*
X540Y1039D02*
X567Y1039D01*
X596Y1039D02*
X623Y1039D01*
X540Y1038D02*
X568Y1038D01*
X596Y1038D02*
X623Y1038D01*
X540Y1037D02*
X568Y1037D01*
X595Y1037D02*
X623Y1037D01*
X540Y1036D02*
X569Y1036D01*
X595Y1036D02*
X623Y1036D01*
X540Y1035D02*
X570Y1035D01*
X594Y1035D02*
X623Y1035D01*
X540Y1034D02*
X570Y1034D01*
X593Y1034D02*
X623Y1034D01*
X540Y1033D02*
X572Y1033D01*
X592Y1033D02*
X623Y1033D01*
X540Y1032D02*
X573Y1032D01*
X590Y1032D02*
X623Y1032D01*
X540Y1031D02*
X575Y1031D01*
X588Y1031D02*
X623Y1031D01*
X540Y1030D02*
X579Y1030D01*
X584Y1030D02*
X623Y1030D01*
X540Y1029D02*
X623Y1029D01*
X540Y1028D02*
X623Y1028D01*
X540Y1027D02*
X623Y1027D01*
X540Y1026D02*
X623Y1026D01*
X540Y1025D02*
X623Y1025D01*
X540Y1024D02*
X623Y1024D01*
X540Y1023D02*
X623Y1023D01*
X540Y1022D02*
X623Y1022D01*
X540Y1021D02*
X623Y1021D01*
X540Y1020D02*
X623Y1020D01*
X540Y1019D02*
X623Y1019D01*
X540Y1018D02*
X623Y1018D01*
X540Y1017D02*
X623Y1017D01*
X540Y1016D02*
X623Y1016D01*
X540Y1015D02*
X623Y1015D01*
X540Y1014D02*
X623Y1014D01*
X540Y1013D02*
X623Y1013D01*
X540Y1012D02*
X623Y1012D01*
X540Y1011D02*
X623Y1011D01*
X540Y1010D02*
X623Y1010D01*
X540Y1009D02*
X623Y1009D01*
X540Y1008D02*
X623Y1008D01*
X540Y1007D02*
X623Y1007D01*
X540Y1006D02*
X623Y1006D01*
X540Y1005D02*
X623Y1005D01*
X540Y1004D02*
X623Y1004D01*
X540Y1003D02*
X623Y1003D01*
X491Y187D02*
X573Y187D01*
X490Y186D02*
X573Y186D01*
X490Y185D02*
X573Y185D01*
X490Y184D02*
X573Y184D01*
X490Y183D02*
X573Y183D01*
X490Y182D02*
X573Y182D01*
X490Y181D02*
X573Y181D01*
X490Y180D02*
X573Y180D01*
X490Y179D02*
X573Y179D01*
X490Y178D02*
X573Y178D01*
X490Y177D02*
X573Y177D01*
X490Y176D02*
X573Y176D01*
X490Y175D02*
X573Y175D01*
X490Y174D02*
X573Y174D01*
X490Y173D02*
X573Y173D01*
X490Y172D02*
X573Y172D01*
X490Y171D02*
X573Y171D01*
X490Y170D02*
X573Y170D01*
X490Y169D02*
X573Y169D01*
X490Y168D02*
X573Y168D01*
X490Y167D02*
X573Y167D01*
X490Y166D02*
X573Y166D01*
X490Y165D02*
X573Y165D01*
X490Y164D02*
X573Y164D01*
X490Y163D02*
X573Y163D01*
X490Y162D02*
X573Y162D01*
X490Y161D02*
X573Y161D01*
X490Y160D02*
X530Y160D01*
X533Y160D02*
X573Y160D01*
X490Y159D02*
X525Y159D01*
X538Y159D02*
X573Y159D01*
X490Y158D02*
X523Y158D01*
X540Y158D02*
X573Y158D01*
X490Y157D02*
X522Y157D01*
X542Y157D02*
X573Y157D01*
X490Y156D02*
X520Y156D01*
X543Y156D02*
X573Y156D01*
X490Y155D02*
X520Y155D01*
X544Y155D02*
X573Y155D01*
X490Y154D02*
X519Y154D01*
X545Y154D02*
X573Y154D01*
X490Y153D02*
X518Y153D01*
X545Y153D02*
X573Y153D01*
X490Y152D02*
X518Y152D01*
X546Y152D02*
X573Y152D01*
X490Y151D02*
X517Y151D01*
X546Y151D02*
X573Y151D01*
X490Y150D02*
X517Y150D01*
X546Y150D02*
X573Y150D01*
X490Y149D02*
X517Y149D01*
X547Y149D02*
X573Y149D01*
X490Y148D02*
X517Y148D01*
X547Y148D02*
X573Y148D01*
X490Y147D02*
X516Y147D01*
X547Y147D02*
X573Y147D01*
X490Y146D02*
X516Y146D01*
X547Y146D02*
X573Y146D01*
X490Y145D02*
X516Y145D01*
X547Y145D02*
X573Y145D01*
X490Y144D02*
X516Y144D01*
X547Y144D02*
X573Y144D01*
X490Y143D02*
X516Y143D01*
X547Y143D02*
X573Y143D01*
X490Y142D02*
X517Y142D01*
X547Y142D02*
X573Y142D01*
X490Y141D02*
X517Y141D01*
X547Y141D02*
X573Y141D01*
X490Y140D02*
X517Y140D01*
X546Y140D02*
X573Y140D01*
X490Y139D02*
X517Y139D01*
X546Y139D02*
X573Y139D01*
X490Y138D02*
X518Y138D01*
X546Y138D02*
X573Y138D01*
X490Y137D02*
X518Y137D01*
X545Y137D02*
X573Y137D01*
X490Y136D02*
X519Y136D01*
X545Y136D02*
X573Y136D01*
X490Y135D02*
X520Y135D01*
X544Y135D02*
X573Y135D01*
X490Y134D02*
X521Y134D01*
X543Y134D02*
X573Y134D01*
X490Y133D02*
X522Y133D01*
X542Y133D02*
X573Y133D01*
X490Y132D02*
X523Y132D01*
X540Y132D02*
X573Y132D01*
X490Y131D02*
X526Y131D01*
X538Y131D02*
X573Y131D01*
X490Y130D02*
X573Y130D01*
X490Y129D02*
X573Y129D01*
X490Y128D02*
X573Y128D01*
X490Y127D02*
X573Y127D01*
X490Y126D02*
X573Y126D01*
X490Y125D02*
X573Y125D01*
X490Y124D02*
X573Y124D01*
X490Y123D02*
X573Y123D01*
X490Y122D02*
X573Y122D01*
X490Y121D02*
X573Y121D01*
X490Y120D02*
X573Y120D01*
X490Y119D02*
X573Y119D01*
X490Y118D02*
X573Y118D01*
X490Y117D02*
X573Y117D01*
X490Y116D02*
X573Y116D01*
X490Y115D02*
X573Y115D01*
X490Y114D02*
X573Y114D01*
X490Y113D02*
X573Y113D01*
X490Y112D02*
X573Y112D01*
X490Y111D02*
X573Y111D01*
X490Y110D02*
X573Y110D01*
X490Y109D02*
X573Y109D01*
X490Y108D02*
X573Y108D01*
X490Y107D02*
X573Y107D01*
X490Y106D02*
X573Y106D01*
X490Y105D02*
X573Y105D01*
X490Y104D02*
X573Y104D01*
D02*
G04 End of Mask0*
M02*