; NON-PLATED HOLES START AT T1
; THROUGH (PLATED) HOLES START AT T100
M48
INCH
T1C0.125984
T100C0.035000
T101C0.039370
T102C0.042000
T103C0.040000
T104C0.032000
%
T1
X001826Y012936
X006326Y012936
T100
X001326Y007436
X008326Y004436
X003326Y008436
X008326Y002436
X004326Y002436
X005326Y007436
X008326Y008436
X007326Y008436
T101
X002826Y010436
X003826Y010436
X004826Y010436
X005826Y010436
X002326Y009436
X003326Y009436
X004326Y009436
X005326Y009436
T102
X003326Y001436
X002326Y001436
X001326Y001436
T103
X007326Y001436
X005326Y001436
X006326Y001336
T104
X004326Y006436
X007326Y003436
X005326Y006436
X006326Y006436
X004326Y003436
X007326Y006436
X005326Y003436
X006326Y003436
T00
M30
