G04 MADE WITH FRITZING*
G04 WWW.FRITZING.ORG*
G04 DOUBLE SIDED*
G04 HOLES PLATED*
G04 CONTOUR ON CENTER OF CONTOUR VECTOR*
%ASAXBY*%
%FSLAX23Y23*%
%MOIN*%
%OFA0B0*%
%SFA1.0B1.0*%
%ADD10C,0.078000*%
%ADD11C,0.074000*%
%ADD12C,0.063000*%
%ADD13C,0.075000*%
%ADD14R,0.001000X0.001000*%
%LNCOPPER1*%
G90*
G70*
G54D10*
X809Y188D03*
X809Y88D03*
X59Y188D03*
X59Y88D03*
X59Y988D03*
X59Y888D03*
X809Y988D03*
X809Y888D03*
G54D11*
X359Y138D03*
X459Y128D03*
X559Y138D03*
X359Y138D03*
X459Y128D03*
X559Y138D03*
X259Y888D03*
X309Y988D03*
X359Y888D03*
X459Y888D03*
X559Y888D03*
X409Y988D03*
X509Y988D03*
X609Y988D03*
X259Y888D03*
X309Y988D03*
X359Y888D03*
X459Y888D03*
X559Y888D03*
X409Y988D03*
X509Y988D03*
X609Y988D03*
G54D12*
X659Y288D03*
X659Y388D03*
X659Y488D03*
X659Y588D03*
X359Y588D03*
X359Y488D03*
X359Y388D03*
X359Y288D03*
X659Y288D03*
X659Y388D03*
X659Y488D03*
X659Y588D03*
X359Y588D03*
X359Y488D03*
X359Y388D03*
X359Y288D03*
G54D13*
X259Y788D03*
X659Y788D03*
G54D14*
X571Y1026D02*
X644Y1026D01*
X571Y1025D02*
X644Y1025D01*
X571Y1024D02*
X644Y1024D01*
X571Y1023D02*
X644Y1023D01*
X571Y1022D02*
X644Y1022D01*
X571Y1021D02*
X644Y1021D01*
X571Y1020D02*
X644Y1020D01*
X571Y1019D02*
X644Y1019D01*
X571Y1018D02*
X644Y1018D01*
X571Y1017D02*
X644Y1017D01*
X571Y1016D02*
X644Y1016D01*
X571Y1015D02*
X644Y1015D01*
X571Y1014D02*
X644Y1014D01*
X571Y1013D02*
X644Y1013D01*
X571Y1012D02*
X644Y1012D01*
X571Y1011D02*
X644Y1011D01*
X571Y1010D02*
X644Y1010D01*
X571Y1009D02*
X606Y1009D01*
X610Y1009D02*
X644Y1009D01*
X571Y1008D02*
X601Y1008D01*
X615Y1008D02*
X644Y1008D01*
X571Y1007D02*
X599Y1007D01*
X617Y1007D02*
X644Y1007D01*
X571Y1006D02*
X597Y1006D01*
X619Y1006D02*
X644Y1006D01*
X571Y1005D02*
X595Y1005D01*
X620Y1005D02*
X644Y1005D01*
X571Y1004D02*
X594Y1004D01*
X621Y1004D02*
X644Y1004D01*
X571Y1003D02*
X593Y1003D01*
X622Y1003D02*
X644Y1003D01*
X571Y1002D02*
X592Y1002D01*
X623Y1002D02*
X644Y1002D01*
X571Y1001D02*
X591Y1001D01*
X624Y1001D02*
X644Y1001D01*
X571Y1000D02*
X591Y1000D01*
X625Y1000D02*
X644Y1000D01*
X571Y999D02*
X590Y999D01*
X625Y999D02*
X644Y999D01*
X571Y998D02*
X590Y998D01*
X626Y998D02*
X644Y998D01*
X571Y997D02*
X589Y997D01*
X626Y997D02*
X644Y997D01*
X571Y996D02*
X589Y996D01*
X627Y996D02*
X644Y996D01*
X571Y995D02*
X589Y995D01*
X627Y995D02*
X644Y995D01*
X571Y994D02*
X588Y994D01*
X627Y994D02*
X644Y994D01*
X571Y993D02*
X588Y993D01*
X628Y993D02*
X644Y993D01*
X571Y992D02*
X588Y992D01*
X628Y992D02*
X644Y992D01*
X571Y991D02*
X588Y991D01*
X628Y991D02*
X644Y991D01*
X571Y990D02*
X588Y990D01*
X628Y990D02*
X644Y990D01*
X571Y989D02*
X588Y989D01*
X628Y989D02*
X644Y989D01*
X571Y988D02*
X588Y988D01*
X628Y988D02*
X644Y988D01*
X571Y987D02*
X588Y987D01*
X628Y987D02*
X644Y987D01*
X571Y986D02*
X588Y986D01*
X628Y986D02*
X644Y986D01*
X571Y985D02*
X588Y985D01*
X627Y985D02*
X644Y985D01*
X571Y984D02*
X588Y984D01*
X627Y984D02*
X644Y984D01*
X571Y983D02*
X589Y983D01*
X627Y983D02*
X644Y983D01*
X571Y982D02*
X589Y982D01*
X626Y982D02*
X644Y982D01*
X571Y981D02*
X590Y981D01*
X626Y981D02*
X644Y981D01*
X571Y980D02*
X590Y980D01*
X625Y980D02*
X644Y980D01*
X571Y979D02*
X591Y979D01*
X625Y979D02*
X644Y979D01*
X571Y978D02*
X591Y978D01*
X624Y978D02*
X644Y978D01*
X571Y977D02*
X592Y977D01*
X623Y977D02*
X644Y977D01*
X571Y976D02*
X593Y976D01*
X623Y976D02*
X644Y976D01*
X571Y975D02*
X594Y975D01*
X622Y975D02*
X644Y975D01*
X571Y974D02*
X595Y974D01*
X620Y974D02*
X644Y974D01*
X571Y973D02*
X597Y973D01*
X619Y973D02*
X644Y973D01*
X571Y972D02*
X598Y972D01*
X617Y972D02*
X644Y972D01*
X571Y971D02*
X601Y971D01*
X615Y971D02*
X644Y971D01*
X571Y970D02*
X605Y970D01*
X610Y970D02*
X644Y970D01*
X571Y969D02*
X644Y969D01*
X571Y968D02*
X644Y968D01*
X571Y967D02*
X644Y967D01*
X571Y966D02*
X644Y966D01*
X571Y965D02*
X644Y965D01*
X571Y964D02*
X644Y964D01*
X571Y963D02*
X644Y963D01*
X571Y962D02*
X644Y962D01*
X571Y961D02*
X644Y961D01*
X571Y960D02*
X644Y960D01*
X571Y959D02*
X644Y959D01*
X571Y958D02*
X644Y958D01*
X571Y957D02*
X644Y957D01*
X571Y956D02*
X644Y956D01*
X571Y955D02*
X644Y955D01*
X571Y954D02*
X644Y954D01*
X571Y953D02*
X644Y953D01*
X322Y176D02*
X394Y176D01*
X322Y175D02*
X394Y175D01*
X322Y174D02*
X394Y174D01*
X322Y173D02*
X394Y173D01*
X322Y172D02*
X394Y172D01*
X322Y171D02*
X394Y171D01*
X322Y170D02*
X394Y170D01*
X322Y169D02*
X394Y169D01*
X322Y168D02*
X394Y168D01*
X322Y167D02*
X394Y167D01*
X322Y166D02*
X394Y166D01*
X322Y165D02*
X394Y165D01*
X322Y164D02*
X394Y164D01*
X322Y163D02*
X394Y163D01*
X322Y162D02*
X394Y162D01*
X322Y161D02*
X394Y161D01*
X322Y160D02*
X394Y160D01*
X322Y159D02*
X352Y159D01*
X364Y159D02*
X394Y159D01*
X322Y158D02*
X349Y158D01*
X367Y158D02*
X394Y158D01*
X322Y157D02*
X347Y157D01*
X369Y157D02*
X394Y157D01*
X322Y156D02*
X346Y156D01*
X370Y156D02*
X394Y156D01*
X322Y155D02*
X345Y155D01*
X371Y155D02*
X394Y155D01*
X322Y154D02*
X343Y154D01*
X373Y154D02*
X394Y154D01*
X322Y153D02*
X343Y153D01*
X373Y153D02*
X394Y153D01*
X322Y152D02*
X342Y152D01*
X374Y152D02*
X394Y152D01*
X322Y151D02*
X341Y151D01*
X375Y151D02*
X394Y151D01*
X322Y150D02*
X340Y150D01*
X376Y150D02*
X394Y150D01*
X322Y149D02*
X340Y149D01*
X376Y149D02*
X394Y149D01*
X322Y148D02*
X339Y148D01*
X377Y148D02*
X394Y148D01*
X322Y147D02*
X339Y147D01*
X377Y147D02*
X394Y147D01*
X322Y146D02*
X339Y146D01*
X377Y146D02*
X394Y146D01*
X322Y145D02*
X338Y145D01*
X378Y145D02*
X394Y145D01*
X322Y144D02*
X338Y144D01*
X378Y144D02*
X394Y144D01*
X322Y143D02*
X338Y143D01*
X378Y143D02*
X394Y143D01*
X322Y142D02*
X338Y142D01*
X378Y142D02*
X394Y142D01*
X322Y141D02*
X338Y141D01*
X378Y141D02*
X394Y141D01*
X322Y140D02*
X338Y140D01*
X378Y140D02*
X394Y140D01*
X322Y139D02*
X338Y139D01*
X378Y139D02*
X394Y139D01*
X322Y138D02*
X338Y138D01*
X378Y138D02*
X394Y138D01*
X322Y137D02*
X338Y137D01*
X378Y137D02*
X394Y137D01*
X322Y136D02*
X338Y136D01*
X378Y136D02*
X394Y136D01*
X322Y135D02*
X338Y135D01*
X378Y135D02*
X394Y135D01*
X322Y134D02*
X338Y134D01*
X377Y134D02*
X394Y134D01*
X322Y133D02*
X339Y133D01*
X377Y133D02*
X394Y133D01*
X322Y132D02*
X339Y132D01*
X377Y132D02*
X394Y132D01*
X322Y131D02*
X340Y131D01*
X376Y131D02*
X394Y131D01*
X322Y130D02*
X340Y130D01*
X376Y130D02*
X394Y130D01*
X322Y129D02*
X341Y129D01*
X375Y129D02*
X394Y129D01*
X322Y128D02*
X342Y128D01*
X374Y128D02*
X394Y128D01*
X322Y127D02*
X342Y127D01*
X374Y127D02*
X394Y127D01*
X322Y126D02*
X343Y126D01*
X373Y126D02*
X394Y126D01*
X322Y125D02*
X344Y125D01*
X372Y125D02*
X394Y125D01*
X322Y124D02*
X346Y124D01*
X370Y124D02*
X394Y124D01*
X322Y123D02*
X347Y123D01*
X369Y123D02*
X394Y123D01*
X322Y122D02*
X349Y122D01*
X367Y122D02*
X394Y122D01*
X322Y121D02*
X351Y121D01*
X365Y121D02*
X394Y121D01*
X322Y120D02*
X357Y120D01*
X359Y120D02*
X394Y120D01*
X322Y119D02*
X394Y119D01*
X322Y118D02*
X394Y118D01*
X322Y117D02*
X394Y117D01*
X322Y116D02*
X394Y116D01*
X322Y115D02*
X394Y115D01*
X322Y114D02*
X394Y114D01*
X322Y113D02*
X394Y113D01*
X322Y112D02*
X394Y112D01*
X322Y111D02*
X394Y111D01*
X322Y110D02*
X394Y110D01*
X322Y109D02*
X394Y109D01*
X322Y108D02*
X394Y108D01*
X322Y107D02*
X394Y107D01*
X322Y106D02*
X394Y106D01*
X322Y105D02*
X394Y105D01*
X322Y104D02*
X394Y104D01*
X322Y103D02*
X394Y103D01*
D02*
G04 End of Copper1*
M02*