; NON-PLATED HOLES START AT T1
; THROUGH (PLATED) HOLES START AT T100
M48
INCH
T1C0.125984
T100C0.035000
T101C0.038000
T102C0.039370
T103C0.040000
T104C0.032000
%
T1
X006588Y012384
X002088Y012384
T100
X006588Y007884
X002588Y007884
T101
X000588Y000884
X008088Y008884
X000588Y008884
X008088Y001884
X000588Y001884
X008088Y009884
X000588Y009884
X008088Y000884
T102
X006088Y009884
X002588Y008884
X003588Y008884
X004588Y008884
X003088Y009884
X004088Y009884
X005588Y008884
X005088Y009884
T103
X005588Y001384
X003588Y001384
X004588Y001284
T104
X003588Y005884
X006588Y003884
X006588Y004884
X006588Y005884
X003588Y002884
X003588Y003884
X003588Y004884
X006588Y002884
T00
M30
