G04 MADE WITH FRITZING*
G04 WWW.FRITZING.ORG*
G04 DOUBLE SIDED*
G04 HOLES PLATED*
G04 CONTOUR ON CENTER OF CONTOUR VECTOR*
%ASAXBY*%
%FSLAX23Y23*%
%MOIN*%
%OFA0B0*%
%SFA1.0B1.0*%
%ADD10C,0.088000*%
%ADD11C,0.084000*%
%ADD12C,0.135984*%
%ADD13C,0.073000*%
%ADD14C,0.085000*%
%ADD15R,0.001000X0.001000*%
%LNMASK1*%
G90*
G70*
G54D10*
X809Y188D03*
X809Y88D03*
X59Y188D03*
X59Y88D03*
X59Y988D03*
X59Y888D03*
X809Y988D03*
X809Y888D03*
G54D11*
X359Y138D03*
X459Y128D03*
X559Y138D03*
X359Y138D03*
X459Y128D03*
X559Y138D03*
X259Y888D03*
X309Y988D03*
X359Y888D03*
X459Y888D03*
X559Y888D03*
X409Y988D03*
X509Y988D03*
X609Y988D03*
G54D12*
X659Y1238D03*
X209Y1238D03*
G54D11*
X259Y888D03*
X309Y988D03*
X359Y888D03*
X459Y888D03*
X559Y888D03*
X409Y988D03*
X509Y988D03*
X609Y988D03*
G54D12*
X659Y1238D03*
X209Y1238D03*
G54D13*
X659Y288D03*
X659Y388D03*
X659Y488D03*
X659Y588D03*
X359Y588D03*
X359Y488D03*
X359Y388D03*
X359Y288D03*
X659Y288D03*
X659Y388D03*
X659Y488D03*
X659Y588D03*
X359Y588D03*
X359Y488D03*
X359Y388D03*
X359Y288D03*
G54D14*
X259Y788D03*
X659Y788D03*
G54D15*
X566Y1031D02*
X649Y1031D01*
X566Y1030D02*
X649Y1030D01*
X566Y1029D02*
X649Y1029D01*
X566Y1028D02*
X649Y1028D01*
X566Y1027D02*
X649Y1027D01*
X566Y1026D02*
X649Y1026D01*
X566Y1025D02*
X649Y1025D01*
X566Y1024D02*
X649Y1024D01*
X566Y1023D02*
X649Y1023D01*
X566Y1022D02*
X649Y1022D01*
X566Y1021D02*
X649Y1021D01*
X566Y1020D02*
X649Y1020D01*
X566Y1019D02*
X649Y1019D01*
X566Y1018D02*
X649Y1018D01*
X566Y1017D02*
X649Y1017D01*
X566Y1016D02*
X649Y1016D01*
X566Y1015D02*
X649Y1015D01*
X566Y1014D02*
X649Y1014D01*
X566Y1013D02*
X649Y1013D01*
X566Y1012D02*
X649Y1012D01*
X566Y1011D02*
X649Y1011D01*
X566Y1010D02*
X649Y1010D01*
X566Y1009D02*
X649Y1009D01*
X566Y1008D02*
X649Y1008D01*
X566Y1007D02*
X649Y1007D01*
X566Y1006D02*
X649Y1006D01*
X566Y1005D02*
X649Y1005D01*
X566Y1004D02*
X606Y1004D01*
X610Y1004D02*
X649Y1004D01*
X566Y1003D02*
X601Y1003D01*
X614Y1003D02*
X649Y1003D01*
X566Y1002D02*
X599Y1002D01*
X616Y1002D02*
X649Y1002D01*
X566Y1001D02*
X598Y1001D01*
X618Y1001D02*
X649Y1001D01*
X566Y1000D02*
X597Y1000D01*
X619Y1000D02*
X649Y1000D01*
X566Y999D02*
X596Y999D01*
X620Y999D02*
X649Y999D01*
X566Y998D02*
X595Y998D01*
X621Y998D02*
X649Y998D01*
X566Y997D02*
X594Y997D01*
X621Y997D02*
X649Y997D01*
X566Y996D02*
X594Y996D01*
X622Y996D02*
X649Y996D01*
X566Y995D02*
X594Y995D01*
X622Y995D02*
X649Y995D01*
X566Y994D02*
X593Y994D01*
X622Y994D02*
X649Y994D01*
X566Y993D02*
X593Y993D01*
X623Y993D02*
X649Y993D01*
X566Y992D02*
X593Y992D01*
X623Y992D02*
X649Y992D01*
X566Y991D02*
X593Y991D01*
X623Y991D02*
X649Y991D01*
X566Y990D02*
X593Y990D01*
X623Y990D02*
X649Y990D01*
X566Y989D02*
X593Y989D01*
X623Y989D02*
X649Y989D01*
X566Y988D02*
X593Y988D01*
X623Y988D02*
X649Y988D01*
X566Y987D02*
X593Y987D01*
X623Y987D02*
X649Y987D01*
X566Y986D02*
X593Y986D01*
X623Y986D02*
X649Y986D01*
X566Y985D02*
X593Y985D01*
X622Y985D02*
X649Y985D01*
X566Y984D02*
X594Y984D01*
X622Y984D02*
X649Y984D01*
X566Y983D02*
X594Y983D01*
X622Y983D02*
X649Y983D01*
X566Y982D02*
X594Y982D01*
X621Y982D02*
X649Y982D01*
X566Y981D02*
X595Y981D01*
X621Y981D02*
X649Y981D01*
X566Y980D02*
X596Y980D01*
X620Y980D02*
X649Y980D01*
X566Y979D02*
X597Y979D01*
X619Y979D02*
X649Y979D01*
X566Y978D02*
X598Y978D01*
X618Y978D02*
X649Y978D01*
X566Y977D02*
X599Y977D01*
X617Y977D02*
X649Y977D01*
X566Y976D02*
X601Y976D01*
X615Y976D02*
X649Y976D01*
X566Y975D02*
X605Y975D01*
X611Y975D02*
X649Y975D01*
X566Y974D02*
X649Y974D01*
X566Y973D02*
X649Y973D01*
X566Y972D02*
X649Y972D01*
X566Y971D02*
X649Y971D01*
X566Y970D02*
X649Y970D01*
X566Y969D02*
X649Y969D01*
X566Y968D02*
X649Y968D01*
X566Y967D02*
X649Y967D01*
X566Y966D02*
X649Y966D01*
X566Y965D02*
X649Y965D01*
X566Y964D02*
X649Y964D01*
X566Y963D02*
X649Y963D01*
X566Y962D02*
X649Y962D01*
X566Y961D02*
X649Y961D01*
X566Y960D02*
X649Y960D01*
X566Y959D02*
X649Y959D01*
X566Y958D02*
X649Y958D01*
X566Y957D02*
X649Y957D01*
X566Y956D02*
X649Y956D01*
X566Y955D02*
X649Y955D01*
X566Y954D02*
X649Y954D01*
X566Y953D02*
X649Y953D01*
X566Y952D02*
X649Y952D01*
X566Y951D02*
X649Y951D01*
X566Y950D02*
X649Y950D01*
X566Y949D02*
X649Y949D01*
X566Y948D02*
X649Y948D01*
X317Y181D02*
X399Y181D01*
X317Y180D02*
X399Y180D01*
X317Y179D02*
X399Y179D01*
X317Y178D02*
X399Y178D01*
X317Y177D02*
X399Y177D01*
X317Y176D02*
X399Y176D01*
X317Y175D02*
X399Y175D01*
X317Y174D02*
X399Y174D01*
X317Y173D02*
X399Y173D01*
X317Y172D02*
X399Y172D01*
X317Y171D02*
X399Y171D01*
X317Y170D02*
X399Y170D01*
X317Y169D02*
X399Y169D01*
X317Y168D02*
X399Y168D01*
X317Y167D02*
X399Y167D01*
X317Y166D02*
X399Y166D01*
X317Y165D02*
X399Y165D01*
X317Y164D02*
X399Y164D01*
X317Y163D02*
X399Y163D01*
X317Y162D02*
X399Y162D01*
X317Y161D02*
X399Y161D01*
X317Y160D02*
X399Y160D01*
X317Y159D02*
X399Y159D01*
X317Y158D02*
X399Y158D01*
X317Y157D02*
X399Y157D01*
X317Y156D02*
X399Y156D01*
X317Y155D02*
X399Y155D01*
X317Y154D02*
X352Y154D01*
X364Y154D02*
X399Y154D01*
X317Y153D02*
X350Y153D01*
X366Y153D02*
X399Y153D01*
X317Y152D02*
X348Y152D01*
X368Y152D02*
X399Y152D01*
X317Y151D02*
X347Y151D01*
X369Y151D02*
X399Y151D01*
X317Y150D02*
X346Y150D01*
X370Y150D02*
X399Y150D01*
X317Y149D02*
X345Y149D01*
X371Y149D02*
X399Y149D01*
X317Y148D02*
X345Y148D01*
X371Y148D02*
X399Y148D01*
X317Y147D02*
X344Y147D01*
X372Y147D02*
X399Y147D01*
X317Y146D02*
X344Y146D01*
X372Y146D02*
X399Y146D01*
X317Y145D02*
X343Y145D01*
X373Y145D02*
X399Y145D01*
X317Y144D02*
X343Y144D01*
X373Y144D02*
X399Y144D01*
X317Y143D02*
X343Y143D01*
X373Y143D02*
X399Y143D01*
X317Y142D02*
X343Y142D01*
X373Y142D02*
X399Y142D01*
X317Y141D02*
X343Y141D01*
X373Y141D02*
X399Y141D01*
X317Y140D02*
X343Y140D01*
X373Y140D02*
X399Y140D01*
X317Y139D02*
X343Y139D01*
X373Y139D02*
X399Y139D01*
X317Y138D02*
X343Y138D01*
X373Y138D02*
X399Y138D01*
X317Y137D02*
X343Y137D01*
X373Y137D02*
X399Y137D01*
X317Y136D02*
X343Y136D01*
X373Y136D02*
X399Y136D01*
X317Y135D02*
X343Y135D01*
X373Y135D02*
X399Y135D01*
X317Y134D02*
X344Y134D01*
X372Y134D02*
X399Y134D01*
X317Y133D02*
X344Y133D01*
X372Y133D02*
X399Y133D01*
X317Y132D02*
X344Y132D01*
X371Y132D02*
X399Y132D01*
X317Y131D02*
X345Y131D01*
X371Y131D02*
X399Y131D01*
X317Y130D02*
X346Y130D01*
X370Y130D02*
X399Y130D01*
X317Y129D02*
X347Y129D01*
X369Y129D02*
X399Y129D01*
X317Y128D02*
X348Y128D01*
X368Y128D02*
X399Y128D01*
X317Y127D02*
X349Y127D01*
X367Y127D02*
X399Y127D01*
X317Y126D02*
X351Y126D01*
X365Y126D02*
X399Y126D01*
X317Y125D02*
X357Y125D01*
X359Y125D02*
X399Y125D01*
X317Y124D02*
X399Y124D01*
X317Y123D02*
X399Y123D01*
X317Y122D02*
X399Y122D01*
X317Y121D02*
X399Y121D01*
X317Y120D02*
X399Y120D01*
X317Y119D02*
X399Y119D01*
X317Y118D02*
X399Y118D01*
X317Y117D02*
X399Y117D01*
X317Y116D02*
X399Y116D01*
X317Y115D02*
X399Y115D01*
X317Y114D02*
X399Y114D01*
X317Y113D02*
X399Y113D01*
X317Y112D02*
X399Y112D01*
X317Y111D02*
X399Y111D01*
X317Y110D02*
X399Y110D01*
X317Y109D02*
X399Y109D01*
X317Y108D02*
X399Y108D01*
X317Y107D02*
X399Y107D01*
X317Y106D02*
X399Y106D01*
X317Y105D02*
X399Y105D01*
X317Y104D02*
X399Y104D01*
X317Y103D02*
X399Y103D01*
X317Y102D02*
X399Y102D01*
X317Y101D02*
X399Y101D01*
X317Y100D02*
X399Y100D01*
X317Y99D02*
X399Y99D01*
X317Y98D02*
X399Y98D01*
D02*
G04 End of Mask1*
M02*